<svg width="824" height="175" viewBox="0 0 824 175" fill="none" xmlns="http://www.w3.org/2000/svg">
<rect x="507.576" y="0.609375" width="248.691" height="134.246" rx="10" transform="rotate(2.97012 507.576 0.609375)" fill="#EBF8FF"/>
<path d="M723.519 172.641C723.452 172.641 723.392 172.621 723.339 172.581C723.299 172.527 723.279 172.467 723.279 172.401V158.881C723.279 158.814 723.299 158.761 723.339 158.721C723.392 158.667 723.452 158.641 723.519 158.641H728.519C729.519 158.641 730.392 158.821 731.139 159.181C731.899 159.527 732.485 160.021 732.899 160.661C733.312 161.301 733.519 162.041 733.519 162.881V168.401C733.519 169.241 733.312 169.981 732.899 170.621C732.485 171.261 731.899 171.761 731.139 172.121C730.392 172.467 729.519 172.641 728.519 172.641H723.519ZM726.099 170.121C726.099 170.187 726.132 170.221 726.199 170.221H728.619C729.232 170.221 729.725 170.014 730.099 169.601C730.485 169.187 730.685 168.634 730.699 167.941V163.341C730.699 162.647 730.505 162.094 730.119 161.681C729.745 161.267 729.239 161.061 728.599 161.061H726.199C726.132 161.061 726.099 161.094 726.099 161.161V170.121ZM744.78 172.641C744.647 172.641 744.56 172.574 744.52 172.441L743.92 170.481C743.893 170.427 743.86 170.401 743.82 170.401H738.9C738.86 170.401 738.827 170.427 738.8 170.481L738.22 172.441C738.18 172.574 738.093 172.641 737.96 172.641H735.42C735.34 172.641 735.28 172.621 735.24 172.581C735.2 172.527 735.193 172.454 735.22 172.361L739.54 158.841C739.58 158.707 739.667 158.641 739.8 158.641H742.94C743.073 158.641 743.16 158.707 743.2 158.841L747.52 172.361C747.533 172.387 747.54 172.421 747.54 172.461C747.54 172.581 747.467 172.641 747.32 172.641H744.78ZM739.52 168.101C739.507 168.181 739.533 168.221 739.6 168.221H743.12C743.2 168.221 743.227 168.181 743.2 168.101L741.4 162.161C741.387 162.107 741.367 162.087 741.34 162.101C741.313 162.101 741.293 162.121 741.28 162.161L739.52 168.101ZM758.239 158.641C758.306 158.641 758.359 158.667 758.399 158.721C758.453 158.761 758.479 158.814 758.479 158.881V160.841C758.479 160.907 758.453 160.967 758.399 161.021C758.359 161.061 758.306 161.081 758.239 161.081H754.659C754.593 161.081 754.559 161.114 754.559 161.181V172.401C754.559 172.467 754.533 172.527 754.479 172.581C754.439 172.621 754.386 172.641 754.319 172.641H751.979C751.913 172.641 751.853 172.621 751.799 172.581C751.759 172.527 751.739 172.467 751.739 172.401V161.181C751.739 161.114 751.706 161.081 751.639 161.081H748.159C748.093 161.081 748.033 161.061 747.979 161.021C747.939 160.967 747.919 160.907 747.919 160.841V158.881C747.919 158.814 747.939 158.761 747.979 158.721C748.033 158.667 748.093 158.641 748.159 158.641H758.239ZM768.89 172.641C768.756 172.641 768.67 172.574 768.63 172.441L768.03 170.481C768.003 170.427 767.97 170.401 767.93 170.401H763.01C762.97 170.401 762.936 170.427 762.91 170.481L762.33 172.441C762.29 172.574 762.203 172.641 762.07 172.641H759.53C759.45 172.641 759.39 172.621 759.35 172.581C759.31 172.527 759.303 172.454 759.33 172.361L763.65 158.841C763.69 158.707 763.776 158.641 763.91 158.641H767.05C767.183 158.641 767.27 158.707 767.31 158.841L771.63 172.361C771.643 172.387 771.65 172.421 771.65 172.461C771.65 172.581 771.576 172.641 771.43 172.641H768.89ZM763.63 168.101C763.616 168.181 763.643 168.221 763.71 168.221H767.23C767.31 168.221 767.336 168.181 767.31 168.101L765.51 162.161C765.496 162.107 765.476 162.087 765.45 162.101C765.423 162.101 765.403 162.121 765.39 162.161L763.63 168.101ZM782.708 165.341C782.628 165.381 782.628 165.421 782.708 165.461C783.974 166.114 784.608 167.201 784.608 168.721C784.608 170.014 784.168 170.994 783.287 171.661C782.408 172.314 781.254 172.641 779.828 172.641H774.648C774.581 172.641 774.521 172.621 774.468 172.581C774.428 172.527 774.408 172.467 774.408 172.401V158.881C774.408 158.814 774.428 158.761 774.468 158.721C774.521 158.667 774.581 158.641 774.648 158.641H779.668C782.828 158.641 784.408 159.921 784.408 162.481C784.408 163.814 783.841 164.767 782.708 165.341ZM777.328 161.061C777.261 161.061 777.228 161.094 777.228 161.161V164.281C777.228 164.347 777.261 164.381 777.328 164.381H779.668C780.294 164.381 780.781 164.234 781.128 163.941C781.474 163.647 781.648 163.247 781.648 162.741C781.648 162.221 781.474 161.814 781.128 161.521C780.781 161.214 780.294 161.061 779.668 161.061H777.328ZM779.828 170.201C780.441 170.201 780.921 170.047 781.268 169.741C781.614 169.421 781.788 168.987 781.788 168.441C781.788 167.894 781.614 167.467 781.268 167.161C780.921 166.841 780.434 166.681 779.808 166.681H777.328C777.261 166.681 777.228 166.714 777.228 166.781V170.101C777.228 170.167 777.261 170.201 777.328 170.201H779.828ZM795.948 172.641C795.815 172.641 795.728 172.574 795.688 172.441L795.088 170.481C795.061 170.427 795.028 170.401 794.988 170.401H790.068C790.028 170.401 789.995 170.427 789.968 170.481L789.388 172.441C789.348 172.574 789.261 172.641 789.128 172.641H786.588C786.508 172.641 786.448 172.621 786.408 172.581C786.368 172.527 786.361 172.454 786.388 172.361L790.708 158.841C790.748 158.707 790.835 158.641 790.968 158.641H794.108C794.241 158.641 794.328 158.707 794.368 158.841L798.688 172.361C798.701 172.387 798.708 172.421 798.708 172.461C798.708 172.581 798.635 172.641 798.488 172.641H795.948ZM790.688 168.101C790.675 168.181 790.701 168.221 790.768 168.221H794.288C794.368 168.221 794.395 168.181 794.368 168.101L792.568 162.161C792.555 162.107 792.535 162.087 792.508 162.101C792.481 162.101 792.461 162.121 792.448 162.161L790.688 168.101ZM805.387 172.801C804.321 172.801 803.387 172.634 802.587 172.301C801.787 171.954 801.167 171.467 800.727 170.841C800.301 170.201 800.087 169.461 800.087 168.621V168.181C800.087 168.114 800.107 168.061 800.147 168.021C800.201 167.967 800.261 167.941 800.327 167.941H802.607C802.674 167.941 802.727 167.967 802.767 168.021C802.821 168.061 802.847 168.114 802.847 168.181V168.481C802.847 169.014 803.094 169.467 803.587 169.841C804.081 170.201 804.747 170.381 805.587 170.381C806.294 170.381 806.821 170.234 807.167 169.941C807.514 169.634 807.687 169.261 807.687 168.821C807.687 168.501 807.581 168.234 807.367 168.021C807.154 167.794 806.861 167.601 806.487 167.441C806.127 167.267 805.547 167.034 804.747 166.741C803.854 166.434 803.094 166.121 802.467 165.801C801.854 165.481 801.334 165.047 800.907 164.501C800.494 163.941 800.287 163.254 800.287 162.441C800.287 161.641 800.494 160.941 800.907 160.341C801.321 159.741 801.894 159.281 802.627 158.961C803.361 158.641 804.207 158.481 805.167 158.481C806.181 158.481 807.081 158.661 807.867 159.021C808.667 159.381 809.287 159.887 809.727 160.541C810.181 161.181 810.407 161.927 810.407 162.781V163.081C810.407 163.147 810.381 163.207 810.327 163.261C810.287 163.301 810.234 163.321 810.167 163.321H807.867C807.801 163.321 807.741 163.301 807.687 163.261C807.647 163.207 807.627 163.147 807.627 163.081V162.921C807.627 162.361 807.394 161.887 806.927 161.501C806.474 161.101 805.847 160.901 805.047 160.901C804.421 160.901 803.927 161.034 803.567 161.301C803.221 161.567 803.047 161.934 803.047 162.401C803.047 162.734 803.147 163.014 803.347 163.241C803.561 163.467 803.867 163.674 804.267 163.861C804.681 164.034 805.314 164.274 806.167 164.581C807.114 164.927 807.854 165.234 808.387 165.501C808.934 165.767 809.421 166.167 809.847 166.701C810.287 167.221 810.507 167.901 810.507 168.741C810.507 169.994 810.047 170.987 809.127 171.721C808.207 172.441 806.961 172.801 805.387 172.801ZM823.202 160.821C823.202 160.887 823.175 160.947 823.122 161.001C823.082 161.041 823.028 161.061 822.962 161.061H816.402C816.335 161.061 816.302 161.094 816.302 161.161V164.261C816.302 164.327 816.335 164.361 816.402 164.361H820.702C820.768 164.361 820.822 164.387 820.862 164.441C820.915 164.481 820.942 164.534 820.942 164.601V166.541C820.942 166.607 820.915 166.667 820.862 166.721C820.822 166.761 820.768 166.781 820.702 166.781H816.402C816.335 166.781 816.302 166.814 816.302 166.881V170.121C816.302 170.187 816.335 170.221 816.402 170.221H822.962C823.028 170.221 823.082 170.247 823.122 170.301C823.175 170.341 823.202 170.394 823.202 170.461V172.401C823.202 172.467 823.175 172.527 823.122 172.581C823.082 172.621 823.028 172.641 822.962 172.641H813.722C813.655 172.641 813.595 172.621 813.542 172.581C813.502 172.527 813.482 172.467 813.482 172.401V158.881C813.482 158.814 813.502 158.761 813.542 158.721C813.595 158.667 813.655 158.641 813.722 158.641H822.962C823.028 158.641 823.082 158.667 823.122 158.721C823.175 158.761 823.202 158.814 823.202 158.881V160.821Z" fill="#B794F4"/>
<path d="M770.879 116.395C794.56 119.024 814.901 110.861 815.815 102.625L822.332 43.9437C819.5 49.0005 802.181 51.6301 778.5 49.0005C754.819 46.3708 736.01 39.5005 736.574 34.4209L730.058 93.1024C728.943 103.14 747.198 113.765 770.879 116.395Z" fill="#FDFBFF"/>
<path d="M770.879 116.395C794.56 119.024 814.901 110.861 815.815 102.625L822.332 43.9437C819.5 49.0005 802.181 51.6301 778.5 49.0005C754.819 46.3708 736.01 39.5005 736.574 34.4209L730.058 93.1024C728.943 103.14 747.198 113.765 770.879 116.395Z" fill="url(#paint0_linear)" fill-opacity="0.5"/>
<path d="M822.331 43.9437C821.732 49.3452 802.048 51.5923 778.367 48.9626C754.686 46.333 735.974 39.8224 736.574 34.4209C737.174 29.0194 756.858 26.7724 780.539 29.402C804.22 32.0317 822.931 38.5422 822.331 43.9437Z" fill="#FDFBFF"/>
<path d="M822.331 43.9437C821.732 49.3452 802.048 51.5923 778.367 48.9626C754.686 46.333 735.974 39.8224 736.574 34.4209M822.331 43.9437C822.931 38.5422 804.22 32.0317 780.539 29.402C756.858 26.7724 737.174 29.0194 736.574 34.4209M822.331 43.9437C819.359 70.7107 818.788 75.8582 815.815 102.625C814.901 110.861 794.56 119.024 770.879 116.395C747.198 113.765 728.943 103.14 730.058 93.1024C733.03 66.3354 733.602 61.1879 736.574 34.4209" stroke="#B794F4" stroke-width="2"/>
<path d="M820.716 58.4964C817.098 69.4607 798.904 75.318 776.696 74.5816C754.487 73.8453 735.111 68.6117 733.465 62.4296" stroke="#B794F4" stroke-width="2"/>
<path d="M817.62 86.3771C815.137 94.7332 790.237 98.2773 769.807 94.3557C749.378 90.4341 732.422 82.3575 732.006 75.5674" stroke="#B794F4" stroke-width="2"/>
<path d="M564 100.641H696" stroke="#63B3ED" stroke-width="2" stroke-linecap="round" stroke-linejoin="round"/>
<path d="M692 106.641L698 100.641L692 94.6406" stroke="#63B3ED" stroke-width="2" stroke-linecap="round" stroke-linejoin="round"/>
<circle cx="634.5" cy="100.141" r="25.5" fill="#EBF8FF"/>
<path d="M645.812 108.07L651.889 114.146C652.67 114.928 652.67 116.194 651.889 116.975L651.334 117.529C650.553 118.31 649.287 118.31 648.506 117.529L642.43 111.453" stroke="#63B3ED" stroke-width="2" stroke-linejoin="round"/>
<circle cx="633" cy="98.6406" r="15" stroke="#63B3ED" stroke-width="2" stroke-linecap="round" stroke-linejoin="round"/>
<path d="M632.902 96.8219C634.684 96.6832 636.01 95.0568 635.864 93.1893C635.719 91.3218 634.157 89.9203 632.376 90.059C630.594 90.1977 629.268 91.824 629.414 93.6916C629.559 95.5591 631.121 96.9606 632.902 96.8219Z" fill="#63B3ED"/>
<path d="M628.025 103.637C627.825 101.069 628.532 98.7263 629.782 97.2284C630.675 97.9243 631.808 98.3007 633.01 98.2072C634.212 98.1136 635.273 97.5663 636.048 96.7405C637.514 98.027 638.576 100.232 638.776 102.8C639.1 106.855 628.317 107.494 628.025 103.637Z" fill="#63B3ED"/>
<path d="M702 44.6406H538" stroke="#63B3ED" stroke-width="2" stroke-linecap="round" stroke-linejoin="round"/>
<path d="M542 50.6406L536 44.6406L542 38.6406" stroke="#63B3ED" stroke-width="2" stroke-linecap="round" stroke-linejoin="round"/>
<ellipse cx="624.5" cy="44.1406" rx="28.5" ry="19.5" fill="#EBF8FF"/>
<path d="M611.628 57.1214L612.246 55.1649C611.823 55.1421 611.488 55 611.24 54.7387C611 54.4866 610.823 54.1638 610.707 53.7703C610.591 53.3769 610.525 52.9414 610.511 52.464C610.504 51.9958 610.522 51.5342 610.565 51.0792L610.759 49.019C610.853 48.0162 610.692 47.1085 610.275 46.2957C609.859 45.4829 609.147 44.8251 608.14 44.3222C609.215 44.0153 610.033 43.4973 610.595 42.7681C611.165 42.0396 611.497 41.1741 611.591 40.1713L611.785 38.1111C611.828 37.6561 611.88 37.1977 611.94 36.7358C612.01 36.2663 612.126 35.8479 612.288 35.4806C612.45 35.1133 612.681 34.829 612.98 34.6277C613.281 34.4179 613.687 34.3457 614.199 34.4109L613.956 32.3861C613.139 32.3091 612.421 32.3988 611.802 32.655C611.182 32.9113 610.669 33.2667 610.26 33.7213C609.769 34.2447 609.386 34.8802 609.112 35.6279C608.838 36.3673 608.668 37.0951 608.6 37.8113L608.406 39.8715C608.299 41.0091 607.961 41.7976 607.393 42.2372C606.825 42.6767 606.005 42.8461 604.935 42.7454L604.697 45.2733C605.767 45.374 606.541 45.6933 607.017 46.2312C607.493 46.7691 607.679 47.5984 607.573 48.7191L607.379 50.7794C607.317 51.445 607.341 52.1317 607.453 52.8393C607.573 53.5561 607.808 54.2243 608.157 54.8438C608.484 55.4356 608.934 55.9412 609.506 56.3607C610.087 56.7893 610.794 57.0429 611.628 57.1214ZM635.224 57.3278L635.466 59.3653C636.3 59.4438 637.038 59.3305 637.678 59.0253C638.327 58.7293 638.868 58.3084 639.302 57.7627C639.734 57.2422 640.08 56.6372 640.34 55.9477C640.6 55.2581 640.762 54.5847 640.823 53.9274L641.017 51.8672C641.055 51.4712 641.117 51.1201 641.206 50.8138C641.303 50.5 641.426 50.231 641.575 50.007C641.852 49.591 642.232 49.308 642.713 49.1578C643.196 48.9992 643.787 48.9528 644.486 49.0186L644.724 46.4907C644.1 46.432 643.573 46.3016 643.141 46.0995C642.718 45.8981 642.401 45.6132 642.189 45.2448C642.027 44.9745 641.917 44.6539 641.859 44.2828C641.809 43.9126 641.806 43.4915 641.85 43.0196L642.044 40.9594C642.104 40.319 642.087 39.65 641.991 38.9524C641.904 38.2472 641.702 37.599 641.383 37.008C641.053 36.3564 640.598 35.8205 640.017 35.4002C639.437 34.9716 638.696 34.7148 637.794 34.6299L637.178 36.5739C637.693 36.6054 638.079 36.7522 638.335 37.0143C638.592 37.268 638.765 37.5904 638.856 37.9815C638.947 38.3726 638.978 38.8048 638.951 39.2783C638.932 39.7441 638.902 40.2045 638.859 40.6596L638.665 42.7198C638.61 43.3012 638.638 43.8607 638.749 44.3982C638.861 44.9272 639.066 45.4183 639.363 45.8713C639.564 46.1792 639.809 46.4658 640.098 46.7311C640.388 46.9964 640.727 47.2324 641.115 47.439C640.598 47.6028 640.144 47.8194 639.754 48.0886C639.372 48.3502 639.045 48.6595 638.774 49.0165C638.502 49.3734 638.287 49.7655 638.127 50.1925C637.977 50.6204 637.878 51.0787 637.832 51.5674L637.638 53.6276C637.595 54.0827 637.523 54.5391 637.42 54.997C637.317 55.4633 637.171 55.8789 636.984 56.2438C636.797 56.6087 636.557 56.8923 636.266 57.0944C635.983 57.3057 635.636 57.3836 635.224 57.3278Z" fill="#63B3ED"/>
<path d="M624.611 42.9976C626.665 43.0734 628.396 41.3153 628.479 39.0708C628.562 36.8263 626.965 34.9453 624.911 34.8695C622.858 34.7936 621.126 36.5517 621.043 38.7962C620.96 41.0408 622.558 42.9217 624.611 42.9976Z" fill="#4299E1"/>
<path d="M618.131 50.4564C618.245 47.3698 619.365 44.6751 620.992 43.0596C621.92 44.0095 623.165 44.6114 624.55 44.6625C625.935 44.7137 627.22 44.2053 628.216 43.3263C629.719 45.0574 630.638 47.8274 630.524 50.9141C630.354 55.7888 617.95 55.0915 618.131 50.4564Z" fill="#4299E1"/>
<path d="M391.17 172.801C390.104 172.801 389.17 172.634 388.37 172.301C387.57 171.954 386.95 171.467 386.51 170.841C386.084 170.201 385.87 169.461 385.87 168.621V168.181C385.87 168.114 385.89 168.061 385.93 168.021C385.984 167.967 386.044 167.941 386.11 167.941H388.39C388.457 167.941 388.51 167.967 388.55 168.021C388.604 168.061 388.63 168.114 388.63 168.181V168.481C388.63 169.014 388.877 169.467 389.37 169.841C389.864 170.201 390.53 170.381 391.37 170.381C392.077 170.381 392.604 170.234 392.95 169.941C393.297 169.634 393.47 169.261 393.47 168.821C393.47 168.501 393.364 168.234 393.15 168.021C392.937 167.794 392.644 167.601 392.27 167.441C391.91 167.267 391.33 167.034 390.53 166.741C389.637 166.434 388.877 166.121 388.25 165.801C387.637 165.481 387.117 165.047 386.69 164.501C386.277 163.941 386.07 163.254 386.07 162.441C386.07 161.641 386.277 160.941 386.69 160.341C387.104 159.741 387.677 159.281 388.41 158.961C389.144 158.641 389.99 158.481 390.95 158.481C391.964 158.481 392.864 158.661 393.65 159.021C394.45 159.381 395.07 159.887 395.51 160.541C395.964 161.181 396.19 161.927 396.19 162.781V163.081C396.19 163.147 396.164 163.207 396.11 163.261C396.07 163.301 396.017 163.321 395.95 163.321H393.65C393.584 163.321 393.524 163.301 393.47 163.261C393.43 163.207 393.41 163.147 393.41 163.081V162.921C393.41 162.361 393.177 161.887 392.71 161.501C392.257 161.101 391.63 160.901 390.83 160.901C390.204 160.901 389.71 161.034 389.35 161.301C389.004 161.567 388.83 161.934 388.83 162.401C388.83 162.734 388.93 163.014 389.13 163.241C389.344 163.467 389.65 163.674 390.05 163.861C390.464 164.034 391.097 164.274 391.95 164.581C392.897 164.927 393.637 165.234 394.17 165.501C394.717 165.767 395.204 166.167 395.63 166.701C396.07 167.221 396.29 167.901 396.29 168.741C396.29 169.994 395.83 170.987 394.91 171.721C393.99 172.441 392.744 172.801 391.17 172.801ZM408.985 160.821C408.985 160.887 408.958 160.947 408.905 161.001C408.865 161.041 408.812 161.061 408.745 161.061H402.185C402.118 161.061 402.085 161.094 402.085 161.161V164.261C402.085 164.327 402.118 164.361 402.185 164.361H406.485C406.552 164.361 406.605 164.387 406.645 164.441C406.698 164.481 406.725 164.534 406.725 164.601V166.541C406.725 166.607 406.698 166.667 406.645 166.721C406.605 166.761 406.552 166.781 406.485 166.781H402.185C402.118 166.781 402.085 166.814 402.085 166.881V170.121C402.085 170.187 402.118 170.221 402.185 170.221H408.745C408.812 170.221 408.865 170.247 408.905 170.301C408.958 170.341 408.985 170.394 408.985 170.461V172.401C408.985 172.467 408.958 172.527 408.905 172.581C408.865 172.621 408.812 172.641 408.745 172.641H399.505C399.438 172.641 399.378 172.621 399.325 172.581C399.285 172.527 399.265 172.467 399.265 172.401V158.881C399.265 158.814 399.285 158.761 399.325 158.721C399.378 158.667 399.438 158.641 399.505 158.641H408.745C408.812 158.641 408.865 158.667 408.905 158.721C408.958 158.761 408.985 158.814 408.985 158.881V160.821ZM419.625 172.641C419.491 172.641 419.398 172.581 419.345 172.461L416.845 166.921C416.818 166.867 416.778 166.841 416.725 166.841H414.865C414.798 166.841 414.765 166.874 414.765 166.941V172.401C414.765 172.467 414.738 172.527 414.685 172.581C414.645 172.621 414.591 172.641 414.525 172.641H412.185C412.118 172.641 412.058 172.621 412.005 172.581C411.965 172.527 411.945 172.467 411.945 172.401V158.881C411.945 158.814 411.965 158.761 412.005 158.721C412.058 158.667 412.118 158.641 412.185 158.641H417.905C418.758 158.641 419.505 158.814 420.145 159.161C420.798 159.507 421.298 160.001 421.645 160.641C422.005 161.281 422.185 162.021 422.185 162.861C422.185 163.767 421.958 164.547 421.505 165.201C421.051 165.841 420.418 166.294 419.605 166.561C419.538 166.587 419.518 166.634 419.545 166.701L422.265 172.361C422.291 172.414 422.305 172.454 422.305 172.481C422.305 172.587 422.231 172.641 422.085 172.641H419.625ZM414.865 161.061C414.798 161.061 414.765 161.094 414.765 161.161V164.581C414.765 164.647 414.798 164.681 414.865 164.681H417.485C418.045 164.681 418.498 164.514 418.845 164.181C419.205 163.847 419.385 163.414 419.385 162.881C419.385 162.347 419.205 161.914 418.845 161.581C418.498 161.234 418.045 161.061 417.485 161.061H414.865ZM428.501 172.641C428.367 172.641 428.281 172.574 428.241 172.441L424.121 158.921L424.101 158.841C424.101 158.707 424.174 158.641 424.321 158.641H426.841C426.987 158.641 427.081 158.707 427.121 158.841L429.781 168.601C429.794 168.641 429.814 168.661 429.841 168.661C429.867 168.661 429.887 168.641 429.901 168.601L432.521 158.841C432.561 158.707 432.654 158.641 432.801 158.641H435.261C435.341 158.641 435.401 158.667 435.441 158.721C435.481 158.774 435.487 158.841 435.461 158.921L431.281 172.441C431.241 172.574 431.154 172.641 431.021 172.641H428.501ZM447.825 160.821C447.825 160.887 447.798 160.947 447.745 161.001C447.705 161.041 447.651 161.061 447.585 161.061H441.025C440.958 161.061 440.925 161.094 440.925 161.161V164.261C440.925 164.327 440.958 164.361 441.025 164.361H445.325C445.391 164.361 445.445 164.387 445.485 164.441C445.538 164.481 445.565 164.534 445.565 164.601V166.541C445.565 166.607 445.538 166.667 445.485 166.721C445.445 166.761 445.391 166.781 445.325 166.781H441.025C440.958 166.781 440.925 166.814 440.925 166.881V170.121C440.925 170.187 440.958 170.221 441.025 170.221H447.585C447.651 170.221 447.705 170.247 447.745 170.301C447.798 170.341 447.825 170.394 447.825 170.461V172.401C447.825 172.467 447.798 172.527 447.745 172.581C447.705 172.621 447.651 172.641 447.585 172.641H438.345C438.278 172.641 438.218 172.621 438.165 172.581C438.125 172.527 438.105 172.467 438.105 172.401V158.881C438.105 158.814 438.125 158.761 438.165 158.721C438.218 158.667 438.278 158.641 438.345 158.641H447.585C447.651 158.641 447.705 158.667 447.745 158.721C447.798 158.761 447.825 158.814 447.825 158.881V160.821ZM458.464 172.641C458.331 172.641 458.238 172.581 458.184 172.461L455.684 166.921C455.658 166.867 455.618 166.841 455.564 166.841H453.704C453.638 166.841 453.604 166.874 453.604 166.941V172.401C453.604 172.467 453.578 172.527 453.524 172.581C453.484 172.621 453.431 172.641 453.364 172.641H451.024C450.958 172.641 450.898 172.621 450.844 172.581C450.804 172.527 450.784 172.467 450.784 172.401V158.881C450.784 158.814 450.804 158.761 450.844 158.721C450.898 158.667 450.958 158.641 451.024 158.641H456.744C457.598 158.641 458.344 158.814 458.984 159.161C459.638 159.507 460.138 160.001 460.484 160.641C460.844 161.281 461.024 162.021 461.024 162.861C461.024 163.767 460.798 164.547 460.344 165.201C459.891 165.841 459.258 166.294 458.444 166.561C458.378 166.587 458.358 166.634 458.384 166.701L461.104 172.361C461.131 172.414 461.144 172.454 461.144 172.481C461.144 172.587 461.071 172.641 460.924 172.641H458.464ZM453.704 161.061C453.638 161.061 453.604 161.094 453.604 161.161V164.581C453.604 164.647 453.638 164.681 453.704 164.681H456.324C456.884 164.681 457.338 164.514 457.684 164.181C458.044 163.847 458.224 163.414 458.224 162.881C458.224 162.347 458.044 161.914 457.684 161.581C457.338 161.234 456.884 161.061 456.324 161.061H453.704Z" fill="#B794F4"/>
<path fill-rule="evenodd" clip-rule="evenodd" d="M353.995 36.5516C350.684 36.6811 348.105 39.4704 348.235 42.7815L348.938 60.7678C349.068 64.079 351.857 66.6582 355.168 66.5286L482.071 61.5639C485.382 61.4343 487.962 58.6451 487.832 55.3339L487.128 37.3477C486.999 34.0365 484.21 31.4573 480.898 31.5868L353.995 36.5516ZM473.3 50.7906C475.507 50.7043 477.227 48.8448 477.14 46.6373C477.054 44.4299 475.195 42.7104 472.987 42.7968C470.78 42.8831 469.06 44.7426 469.147 46.9501C469.233 49.1575 471.092 50.877 473.3 50.7906ZM465.15 47.1063C465.237 49.3138 463.517 51.1733 461.31 51.2596C459.102 51.346 457.243 49.6265 457.156 47.4191C457.07 45.2116 458.789 43.3521 460.997 43.2657C463.204 43.1794 465.064 44.8989 465.15 47.1063ZM355.442 73.5233C352.131 73.6528 349.551 76.4421 349.681 79.7533L350.385 97.7395C350.514 101.051 353.303 103.63 356.615 103.5L483.518 98.5356C486.829 98.406 489.408 95.6168 489.278 92.3056L488.575 74.3194C488.445 71.0082 485.656 68.429 482.345 68.5585L355.442 73.5233Z" fill="url(#paint1_linear)" fill-opacity="0.5"/>
<path d="M348.235 42.7815L347.235 42.8206L348.235 42.7815ZM348.938 60.7678L349.937 60.7287L348.938 60.7678ZM355.168 66.5286L355.207 67.5279L355.168 66.5286ZM482.071 61.5639L482.032 60.5646L482.071 61.5639ZM487.832 55.3339L488.831 55.2948L487.832 55.3339ZM487.128 37.3477L486.129 37.3867L487.128 37.3477ZM349.681 79.7533L348.682 79.7924L349.681 79.7533ZM355.442 73.5233L355.481 74.5225L355.442 73.5233ZM350.385 97.7395L351.384 97.7004L350.385 97.7395ZM489.278 92.3056L488.279 92.3447L489.278 92.3056ZM488.575 74.3194L489.574 74.2803L488.575 74.3194ZM482.345 68.5585L482.306 67.5593L482.345 68.5585ZM349.234 42.7425C349.126 39.9831 351.275 37.6588 354.035 37.5508L353.956 35.5523C350.093 35.7035 347.084 38.9576 347.235 42.8206L349.234 42.7425ZM349.937 60.7287L349.234 42.7425L347.235 42.8206L347.939 60.8069L349.937 60.7287ZM355.129 65.5294C352.37 65.6374 350.045 63.488 349.937 60.7287L347.939 60.8069C348.09 64.6699 351.344 67.679 355.207 67.5279L355.129 65.5294ZM482.032 60.5646L355.129 65.5294L355.207 67.5279L482.11 62.5631L482.032 60.5646ZM486.833 55.373C486.941 58.1323 484.791 60.4567 482.032 60.5646L482.11 62.5631C485.973 62.412 488.982 59.1578 488.831 55.2948L486.833 55.373ZM486.129 37.3867L486.833 55.373L488.831 55.2948L488.128 37.3086L486.129 37.3867ZM480.937 32.586C483.697 32.4781 486.021 34.6274 486.129 37.3867L488.128 37.3086C487.976 33.4455 484.722 30.4364 480.859 30.5876L480.937 32.586ZM354.035 37.5508L480.937 32.586L480.859 30.5876L353.956 35.5523L354.035 37.5508ZM476.141 46.6764C476.206 48.332 474.916 49.7266 473.261 49.7914L473.339 51.7899C476.098 51.6819 478.248 49.3575 478.14 46.5982L476.141 46.6764ZM473.026 43.796C474.682 43.7312 476.076 45.0208 476.141 46.6764L478.14 46.5982C478.032 43.8389 475.707 41.6896 472.948 41.7975L473.026 43.796ZM470.146 46.911C470.081 45.2554 471.371 43.8608 473.026 43.796L472.948 41.7975C470.189 41.9055 468.039 44.2298 468.147 46.9892L470.146 46.911ZM473.261 49.7914C471.605 49.8562 470.211 48.5666 470.146 46.911L468.147 46.9892C468.255 49.7485 470.58 51.8978 473.339 51.7899L473.261 49.7914ZM461.349 52.2589C464.108 52.1509 466.257 49.8265 466.149 47.0672L464.151 47.1454C464.216 48.801 462.926 50.1956 461.271 50.2604L461.349 52.2589ZM456.157 47.4582C456.265 50.2175 458.589 52.3668 461.349 52.2589L461.271 50.2604C459.615 50.3252 458.22 49.0356 458.156 47.38L456.157 47.4582ZM460.958 42.2665C458.199 42.3745 456.049 44.6988 456.157 47.4582L458.156 47.38C458.091 45.7244 459.38 44.3298 461.036 44.265L460.958 42.2665ZM466.149 47.0672C466.042 44.3079 463.717 42.1586 460.958 42.2665L461.036 44.265C462.692 44.2002 464.086 45.4898 464.151 47.1454L466.149 47.0672ZM350.68 79.7142C350.572 76.9549 352.722 74.6305 355.481 74.5225L355.403 72.5241C351.54 72.6752 348.531 75.9293 348.682 79.7924L350.68 79.7142ZM351.384 97.7004L350.68 79.7142L348.682 79.7924L349.385 97.7786L351.384 97.7004ZM356.576 102.501C353.816 102.609 351.492 100.46 351.384 97.7004L349.385 97.7786C349.537 101.642 352.791 104.651 356.654 104.5L356.576 102.501ZM483.478 97.5363L356.576 102.501L356.654 104.5L483.557 99.5348L483.478 97.5363ZM488.279 92.3447C488.387 95.104 486.238 97.4284 483.478 97.5363L483.557 99.5348C487.42 99.3837 490.429 96.1295 490.278 92.2665L488.279 92.3447ZM487.575 74.3585L488.279 92.3447L490.278 92.2665L489.574 74.2803L487.575 74.3585ZM482.384 69.5577C485.143 69.4498 487.468 71.5991 487.575 74.3585L489.574 74.2803C489.423 70.4172 486.169 67.4081 482.306 67.5593L482.384 69.5577ZM355.481 74.5225L482.384 69.5577L482.306 67.5593L355.403 72.5241L355.481 74.5225Z" fill="#B794F4"/>
<path d="M361 50.7861L389.978 49.6524" stroke="#B794F4" stroke-width="2"/>
<rect x="382" y="83.6406" width="131.437" height="36.1652" rx="6" fill="#3182CE"/>
<path fill-rule="evenodd" clip-rule="evenodd" d="M402.148 104.419C401.948 104.746 401.951 105.158 402.156 105.482L405.869 111.339C406.11 111.719 406.575 111.893 407.006 111.763L417.721 108.549C418.306 108.373 418.6 107.721 418.344 107.167L411.456 92.2244C411.12 91.4957 410.108 91.4359 409.688 92.12L402.148 104.419ZM411.273 95.6411C411.127 95.3023 410.631 95.3545 410.558 95.7163L407.906 108.921C407.85 109.199 408.111 109.437 408.383 109.356L415.787 107.146C416.003 107.081 416.114 106.843 416.025 106.636L411.273 95.6411Z" fill="#EBF8FF"/>
<path d="M428.159 108.724H430.794V103.809H433.578C436.938 103.809 438.742 101.792 438.742 98.9935C438.742 96.2165 436.959 94.1782 433.614 94.1782H428.159V108.724ZM430.794 101.643V96.3799H433.209C435.183 96.3799 436.057 97.4452 436.057 98.9935C436.057 100.542 435.183 101.643 433.223 101.643H430.794ZM440.917 108.724H443.488V102.31C443.488 100.925 444.532 99.9452 445.945 99.9452C446.378 99.9452 446.918 100.023 447.138 100.094V97.7293C446.904 97.6867 446.499 97.6583 446.215 97.6583C444.965 97.6583 443.921 98.3685 443.523 99.6327H443.41V97.8145H440.917V108.724ZM448.846 108.724H451.417V97.8145H448.846V108.724ZM450.139 96.2662C450.956 96.2662 451.623 95.6412 451.623 94.8742C451.623 94.1001 450.956 93.4751 450.139 93.4751C449.315 93.4751 448.648 94.1001 448.648 94.8742C448.648 95.6412 449.315 96.2662 450.139 96.2662ZM462.683 100.698C462.328 98.8515 460.851 97.6725 458.294 97.6725C455.666 97.6725 453.877 98.9651 453.884 100.982C453.877 102.573 454.857 103.624 456.952 104.057L458.813 104.448C459.814 104.668 460.283 105.073 460.283 105.691C460.283 106.437 459.473 106.998 458.252 106.998C457.073 106.998 456.306 106.486 456.085 105.506L453.578 105.748C453.898 107.751 455.581 108.937 458.259 108.937C460.986 108.937 462.911 107.523 462.918 105.457C462.911 103.901 461.909 102.949 459.85 102.502L457.989 102.104C456.881 101.856 456.441 101.472 456.448 100.84C456.441 100.101 457.257 99.5901 458.33 99.5901C459.516 99.5901 460.141 100.236 460.34 100.954L462.683 100.698ZM465.038 108.724H467.609V102.09C467.609 100.748 468.504 99.8387 469.612 99.8387C470.698 99.8387 471.444 100.57 471.444 101.692V108.724H473.965V101.92C473.965 100.691 474.697 99.8387 475.94 99.8387C476.977 99.8387 477.801 100.449 477.801 101.799V108.724H480.379V101.401C480.379 98.9651 478.972 97.6725 476.97 97.6725C475.386 97.6725 474.178 98.4537 473.695 99.6682H473.582C473.163 98.4324 472.105 97.6725 470.634 97.6725C469.171 97.6725 468.078 98.4253 467.623 99.6682H467.495V97.8145H465.038V108.724ZM486.126 108.944C487.838 108.944 488.861 108.141 489.329 107.225H489.415V108.724H491.886V101.422C491.886 98.539 489.535 97.6725 487.454 97.6725C485.16 97.6725 483.399 98.6952 482.831 100.684L485.231 101.025C485.487 100.279 486.211 99.6398 487.469 99.6398C488.662 99.6398 489.315 100.251 489.315 101.323V101.366C489.315 102.104 488.541 102.14 486.616 102.346C484.5 102.573 482.476 103.205 482.476 105.663C482.476 107.807 484.045 108.944 486.126 108.944ZM486.794 107.055C485.721 107.055 484.954 106.565 484.954 105.62C484.954 104.633 485.814 104.221 486.964 104.057C487.639 103.965 488.988 103.795 489.322 103.525V104.81C489.322 106.025 488.342 107.055 486.794 107.055Z" fill="white"/>
<path d="M186 100.641H233M318 100.641H277" stroke="#D6BCFA" stroke-width="2" stroke-linecap="round" stroke-linejoin="round"/>
<path d="M314 106.641L320 100.641L314 94.6406" stroke="#D6BCFA" stroke-width="2" stroke-linecap="round" stroke-linejoin="round"/>
<path d="M262.559 101.766C262.48 101.756 262.412 101.723 262.354 101.668C262.314 101.598 262.3 101.524 262.309 101.444L262.405 100.682C262.505 99.8886 262.783 99.2785 263.24 98.852C263.714 98.4117 264.366 97.9695 265.196 97.5254C265.869 97.1745 266.377 96.8513 266.721 96.5557C267.064 96.2602 267.266 95.8743 267.326 95.3981C267.389 94.8901 267.25 94.4613 266.907 94.1119C266.565 93.7465 266.085 93.525 265.466 93.4473C264.799 93.3636 264.239 93.4625 263.784 93.7441C263.345 94.0276 263.093 94.4313 263.027 94.9552L262.979 95.3362C262.958 95.5109 262.851 95.5862 262.661 95.5623L259.89 95.0935C259.81 95.0835 259.742 95.0508 259.684 94.9952C259.645 94.9257 259.63 94.8512 259.64 94.7719L259.67 94.5337C259.789 93.5812 260.133 92.7697 260.701 92.0992C261.271 91.4129 262.001 90.9241 262.893 90.6328C263.802 90.3277 264.812 90.2448 265.923 90.3843C267.003 90.5199 267.922 90.8369 268.682 91.3354C269.46 91.82 270.027 92.4395 270.384 93.1938C270.741 93.9482 270.861 94.7857 270.746 95.7065C270.658 96.405 270.455 96.9923 270.138 97.4684C269.838 97.9307 269.493 98.2986 269.104 98.5723C268.715 98.846 268.227 99.1394 267.639 99.4527C267.018 99.7778 266.554 100.066 266.248 100.318C265.943 100.57 265.764 100.902 265.712 101.315L265.643 101.863C265.633 101.942 265.593 102.01 265.521 102.065C265.468 102.107 265.401 102.123 265.322 102.113L262.559 101.766ZM263.176 107.262C262.636 107.194 262.205 106.962 261.884 106.567C261.581 106.158 261.463 105.684 261.531 105.144C261.598 104.604 261.829 104.182 262.222 103.876C262.615 103.571 263.089 103.453 263.645 103.523C264.201 103.593 264.623 103.823 264.913 104.214C265.22 104.591 265.339 105.058 265.269 105.613C265.201 106.153 264.97 106.584 264.575 106.905C264.182 107.21 263.715 107.329 263.176 107.262Z" fill="#D6BCFA"/>
<path d="M248.397 99.0289C250.43 98.7314 251.815 96.6886 251.49 94.4662C251.164 92.2438 249.252 90.6834 247.219 90.981C245.186 91.2785 243.802 93.3213 244.127 95.5437C244.452 97.7661 246.364 99.3265 248.397 99.0289Z" fill="#D6BCFA"/>
<path d="M243.376 107.539C242.929 104.482 243.542 101.629 244.85 99.7457C245.934 100.512 247.267 100.878 248.638 100.677C250.01 100.477 251.182 99.7438 252.001 98.699C253.794 100.129 255.199 102.687 255.647 105.743C256.363 110.568 244.038 112.13 243.376 107.539Z" fill="#D6BCFA"/>
<path d="M320 44.6406H279M188 44.6406H232" stroke="#D6BCFA" stroke-width="2" stroke-linecap="round" stroke-linejoin="round"/>
<path d="M192 50.6406L186 44.6406L192 38.6406" stroke="#D6BCFA" stroke-width="2" stroke-linecap="round" stroke-linejoin="round"/>
<path d="M240 22.6406C240 20.4315 241.791 18.6406 244 18.6406H258.343C259.404 18.6406 260.421 19.0621 261.172 19.8122L269.828 28.4691C270.579 29.2192 271 30.2366 271 31.2975V57.6406C271 59.8498 269.209 61.6406 267 61.6406H244C241.791 61.6406 240 59.8498 240 57.6406V22.6406Z" stroke="#D6BCFA" stroke-width="2"/>
<path d="M260 18.6406V25.6406C260 27.8498 261.791 29.6406 264 29.6406H271" stroke="#D6BCFA" stroke-width="2"/>
<path d="M255.627 40.7743C257.681 40.7743 259.347 38.9535 259.347 36.7075C259.347 34.4614 257.681 32.6406 255.627 32.6406C253.572 32.6406 251.906 34.4614 251.906 36.7075C251.906 38.9535 253.572 40.7743 255.627 40.7743Z" fill="#9F7AEA"/>
<path d="M249.426 48.4672C249.426 45.3784 250.446 42.6442 252.012 40.9698C252.975 41.8849 254.24 42.4404 255.627 42.4404C257.013 42.4404 258.278 41.8849 259.241 40.9698C260.807 42.6442 261.827 45.3784 261.827 48.4672C261.837 53.3449 249.416 53.1058 249.426 48.4672Z" fill="#9F7AEA"/>
<path d="M51.3666 172.801C50.3266 172.801 49.4132 172.601 48.6266 172.201C47.8399 171.787 47.2332 171.214 46.8066 170.481C46.3799 169.747 46.1666 168.901 46.1666 167.941V163.321C46.1666 162.361 46.3799 161.514 46.8066 160.781C47.2332 160.047 47.8399 159.481 48.6266 159.081C49.4132 158.681 50.3266 158.481 51.3666 158.481C52.3932 158.481 53.2932 158.674 54.0666 159.061C54.8532 159.434 55.4599 159.974 55.8866 160.681C56.3266 161.374 56.5466 162.181 56.5466 163.101C56.5466 163.221 56.4666 163.294 56.3066 163.321L53.9666 163.461H53.9266C53.7932 163.461 53.7266 163.387 53.7266 163.241C53.7266 162.534 53.5066 161.967 53.0666 161.541C52.6399 161.114 52.0732 160.901 51.3666 160.901C50.6466 160.901 50.0666 161.114 49.6266 161.541C49.1999 161.967 48.9866 162.534 48.9866 163.241V168.061C48.9866 168.754 49.1999 169.314 49.6266 169.741C50.0666 170.167 50.6466 170.381 51.3666 170.381C52.0732 170.381 52.6399 170.167 53.0666 169.741C53.5066 169.314 53.7266 168.754 53.7266 168.061C53.7266 167.914 53.8066 167.841 53.9666 167.841L56.3066 167.941C56.3732 167.941 56.4266 167.961 56.4666 168.001C56.5199 168.041 56.5466 168.087 56.5466 168.141C56.5466 169.061 56.3266 169.874 55.8866 170.581C55.4599 171.287 54.8532 171.834 54.0666 172.221C53.2932 172.607 52.3932 172.801 51.3666 172.801ZM59.8545 172.641C59.7879 172.641 59.7279 172.621 59.6745 172.581C59.6345 172.527 59.6145 172.467 59.6145 172.401V158.881C59.6145 158.814 59.6345 158.761 59.6745 158.721C59.7279 158.667 59.7879 158.641 59.8545 158.641H62.1945C62.2612 158.641 62.3145 158.667 62.3545 158.721C62.4079 158.761 62.4345 158.814 62.4345 158.881V170.121C62.4345 170.187 62.4679 170.221 62.5345 170.221H69.0745C69.1412 170.221 69.1945 170.247 69.2345 170.301C69.2879 170.341 69.3145 170.394 69.3145 170.461V172.401C69.3145 172.467 69.2879 172.527 69.2345 172.581C69.1945 172.621 69.1412 172.641 69.0745 172.641H59.8545ZM72.2998 172.641C72.2332 172.641 72.1732 172.621 72.1198 172.581C72.0798 172.527 72.0598 172.467 72.0598 172.401V158.881C72.0598 158.814 72.0798 158.761 72.1198 158.721C72.1732 158.667 72.2332 158.641 72.2998 158.641H74.6398C74.7065 158.641 74.7598 158.667 74.7998 158.721C74.8532 158.761 74.8798 158.814 74.8798 158.881V172.401C74.8798 172.467 74.8532 172.527 74.7998 172.581C74.7598 172.621 74.7065 172.641 74.6398 172.641H72.2998ZM88.0338 160.821C88.0338 160.887 88.0071 160.947 87.9538 161.001C87.9138 161.041 87.8604 161.061 87.7938 161.061H81.2338C81.1671 161.061 81.1338 161.094 81.1338 161.161V164.261C81.1338 164.327 81.1671 164.361 81.2338 164.361H85.5338C85.6004 164.361 85.6538 164.387 85.6938 164.441C85.7471 164.481 85.7738 164.534 85.7738 164.601V166.541C85.7738 166.607 85.7471 166.667 85.6938 166.721C85.6538 166.761 85.6004 166.781 85.5338 166.781H81.2338C81.1671 166.781 81.1338 166.814 81.1338 166.881V170.121C81.1338 170.187 81.1671 170.221 81.2338 170.221H87.7938C87.8604 170.221 87.9138 170.247 87.9538 170.301C88.0071 170.341 88.0338 170.394 88.0338 170.461V172.401C88.0338 172.467 88.0071 172.527 87.9538 172.581C87.9138 172.621 87.8604 172.641 87.7938 172.641H78.5538C78.4871 172.641 78.4271 172.621 78.3738 172.581C78.3338 172.527 78.3138 172.467 78.3138 172.401V158.881C78.3138 158.814 78.3338 158.761 78.3738 158.721C78.4271 158.667 78.4871 158.641 78.5538 158.641H87.7938C87.8604 158.641 87.9138 158.667 87.9538 158.721C88.0071 158.761 88.0338 158.814 88.0338 158.881V160.821ZM99.0334 158.881C99.0334 158.814 99.0534 158.761 99.0934 158.721C99.1468 158.667 99.2068 158.641 99.2734 158.641H101.613C101.68 158.641 101.733 158.667 101.773 158.721C101.827 158.761 101.853 158.814 101.853 158.881V172.401C101.853 172.467 101.827 172.527 101.773 172.581C101.733 172.621 101.68 172.641 101.613 172.641H99.3534C99.2201 172.641 99.1268 172.587 99.0734 172.481L93.8934 163.921C93.8668 163.881 93.8401 163.867 93.8134 163.881C93.7868 163.881 93.7734 163.907 93.7734 163.961L93.8134 172.401C93.8134 172.467 93.7868 172.527 93.7334 172.581C93.6934 172.621 93.6401 172.641 93.5734 172.641H91.2334C91.1668 172.641 91.1068 172.621 91.0534 172.581C91.0134 172.527 90.9934 172.467 90.9934 172.401V158.881C90.9934 158.814 91.0134 158.761 91.0534 158.721C91.1068 158.667 91.1668 158.641 91.2334 158.641H93.4934C93.6268 158.641 93.7201 158.694 93.7734 158.801L98.9334 167.321C98.9601 167.361 98.9868 167.381 99.0134 167.381C99.0401 167.367 99.0534 167.334 99.0534 167.281L99.0334 158.881ZM114.954 158.641C115.021 158.641 115.074 158.667 115.114 158.721C115.168 158.761 115.194 158.814 115.194 158.881V160.841C115.194 160.907 115.168 160.967 115.114 161.021C115.074 161.061 115.021 161.081 114.954 161.081H111.374C111.308 161.081 111.274 161.114 111.274 161.181V172.401C111.274 172.467 111.248 172.527 111.194 172.581C111.154 172.621 111.101 172.641 111.034 172.641H108.694C108.628 172.641 108.568 172.621 108.514 172.581C108.474 172.527 108.454 172.467 108.454 172.401V161.181C108.454 161.114 108.421 161.081 108.354 161.081H104.874C104.808 161.081 104.748 161.061 104.694 161.021C104.654 160.967 104.634 160.907 104.634 160.841V158.881C104.634 158.814 104.654 158.761 104.694 158.721C104.748 158.667 104.808 158.641 104.874 158.641H114.954Z" fill="#B794F4"/>
<mask id="mask0" mask-type="alpha" maskUnits="userSpaceOnUse" x="21" y="7" width="152" height="118">
<path fill-rule="evenodd" clip-rule="evenodd" d="M172.953 7.64062H21.9531V38.5523L34.0222 36.6608C38.3871 35.9767 42.4803 38.9606 43.1644 43.3256L53.5675 109.703C54.2516 114.068 51.2677 118.161 46.9027 118.846L21.9531 122.756V124.641H172.953V7.64062Z" fill="#C4C4C4"/>
</mask>
<g mask="url(#mask0)">
<path fill-rule="evenodd" clip-rule="evenodd" d="M47.1581 16.5463C41.658 16.0461 36.7937 20.0994 36.2936 25.5995L30.8597 85.353C30.3595 90.8531 34.4128 95.7173 39.913 96.2175L139.502 105.274C145.002 105.774 149.866 101.721 150.367 96.2207L155.8 36.4673C156.301 30.9671 152.247 26.1029 146.747 25.6027L47.1581 16.5463ZM75.088 29.6295C72.888 29.4294 70.9423 31.0507 70.7422 33.2508C70.5421 35.4509 72.1634 37.3966 74.3635 37.5966C76.5636 37.7967 78.5093 36.1754 78.7093 33.9753C78.9094 31.7753 77.2881 29.8296 75.088 29.6295ZM58.7915 32.164C58.9916 29.964 60.9373 28.3427 63.1373 28.5427C65.3374 28.7428 66.9587 30.6885 66.7586 32.8885C66.5586 35.0886 64.6129 36.7099 62.4128 36.5098C60.2128 36.3098 58.5914 34.3641 58.7915 32.164ZM51.1866 27.4559C48.9866 27.2559 47.0409 28.8772 46.8408 31.0772C46.6408 33.2773 48.2621 35.223 50.4621 35.4231C52.6622 35.6231 54.6079 34.0018 54.808 31.8018C55.008 29.6017 53.3867 27.656 51.1866 27.4559Z" fill="url(#paint2_linear)" fill-opacity="0.5"/>
<path d="M36.2936 25.5995L37.2895 25.6901L36.2936 25.5995ZM30.8597 85.353L29.8638 85.2624L30.8597 85.353ZM37.2895 25.6901C37.7396 20.74 42.1174 17.092 47.0676 17.5422L47.2487 15.5504C41.1985 15.0002 35.8479 19.4588 35.2977 25.509L37.2895 25.6901ZM31.8556 85.4435L37.2895 25.6901L35.2977 25.509L29.8638 85.2624L31.8556 85.4435ZM40.0035 95.2216C35.0534 94.7715 31.4054 90.3937 31.8556 85.4435L29.8638 85.2624C29.3136 91.3126 33.7722 96.6632 39.8224 97.2134L40.0035 95.2216ZM139.593 104.278L40.0035 95.2216L39.8224 97.2134L139.411 106.27L139.593 104.278ZM149.371 96.1302C148.921 101.08 144.543 104.728 139.593 104.278L139.411 106.27C145.462 106.82 150.812 102.361 151.362 96.3113L149.371 96.1302ZM154.805 36.3767L149.371 96.1302L151.362 96.3113L156.796 36.5579L154.805 36.3767ZM146.657 26.5986C151.607 27.0488 155.255 31.4266 154.805 36.3767L156.796 36.5579C157.347 30.5077 152.888 25.157 146.838 24.6068L146.657 26.5986ZM47.0676 17.5422L146.657 26.5986L146.838 24.6068L47.2487 15.5504L47.0676 17.5422ZM71.7381 33.3414C71.8881 31.6913 73.3474 30.4753 74.9975 30.6254L75.1786 28.6336C72.4285 28.3835 69.9964 30.4102 69.7463 33.1602L71.7381 33.3414ZM74.4541 36.6007C72.804 36.4507 71.588 34.9914 71.7381 33.3414L69.7463 33.1602C69.4962 35.9103 71.5229 38.3424 74.2729 38.5925L74.4541 36.6007ZM77.7134 33.8848C77.5634 35.5348 76.1041 36.7508 74.4541 36.6007L74.2729 38.5925C77.023 38.8426 79.4551 36.816 79.7052 34.0659L77.7134 33.8848ZM74.9975 30.6254C76.6475 30.7754 77.8635 32.2347 77.7134 33.8848L79.7052 34.0659C79.9553 31.3158 77.9287 28.8837 75.1786 28.6336L74.9975 30.6254ZM63.2279 27.5468C60.4778 27.2967 58.0457 29.3234 57.7956 32.0735L59.7874 32.2546C59.9375 30.6045 61.3967 29.3886 63.0468 29.5386L63.2279 27.5468ZM67.7545 32.9791C68.0046 30.229 65.978 27.7969 63.2279 27.5468L63.0468 29.5386C64.6968 29.6887 65.9128 31.1479 65.7627 32.798L67.7545 32.9791ZM62.3223 37.5057C65.0723 37.7558 67.5044 35.7292 67.7545 32.9791L65.7627 32.798C65.6127 34.448 64.1534 35.664 62.5034 35.514L62.3223 37.5057ZM57.7956 32.0735C57.5455 34.8235 59.5722 37.2556 62.3223 37.5057L62.5034 35.514C60.8533 35.3639 59.6374 33.9046 59.7874 32.2546L57.7956 32.0735ZM47.8367 31.1678C47.9868 29.5178 49.446 28.3018 51.0961 28.4518L51.2772 26.4601C48.5271 26.21 46.095 28.2366 45.8449 30.9867L47.8367 31.1678ZM50.5527 34.4272C48.9027 34.2771 47.6867 32.8179 47.8367 31.1678L45.8449 30.9867C45.5949 33.7368 47.6215 36.1689 50.3716 36.419L50.5527 34.4272ZM53.8121 31.7112C53.662 33.3612 52.2027 34.5772 50.5527 34.4272L50.3716 36.419C53.1216 36.669 55.5538 34.6424 55.8038 31.8923L53.8121 31.7112ZM51.0961 28.4518C52.7461 28.6019 53.9621 30.0612 53.8121 31.7112L55.8038 31.8923C56.0539 29.1423 54.0273 26.7101 51.2772 26.4601L51.0961 28.4518Z" fill="#B794F4"/>
<path d="M106.803 103.545C106.868 102.846 106.914 102.151 106.944 101.462L104.946 101.376C105.004 100.026 104.992 98.6969 104.914 97.3966L106.911 97.278C106.826 95.855 106.667 94.4621 106.438 93.1084L104.466 93.4424C104.239 92.1032 103.94 90.8071 103.575 89.5642L105.493 88.9998C105.085 87.6107 104.596 86.2781 104.033 85.0146L102.206 85.8292C101.651 84.5834 101.02 83.4158 100.321 82.34C100.342 82.3239 100.363 82.3078 100.383 82.2917L100.38 82.2876L101.991 81.2401C101.592 80.6258 101.171 80.0363 100.728 79.4742L99.4985 77.9143L97.9299 79.1325C97.2385 79.6695 96.5037 80.1413 95.7342 80.5412L96.6564 82.3158C94.9081 83.2244 92.9947 83.812 90.9918 84.0121L90.793 82.022C89.9477 82.1064 89.0831 82.1116 88.2061 82.0305C87.3291 81.9493 86.4801 81.7856 85.6647 81.5475L85.1041 83.4673C83.1719 82.9031 81.3988 81.9744 79.8469 80.7605L81.0791 79.1852C80.396 78.6509 79.7602 78.0523 79.1791 77.3976L77.8607 75.9123L76.3662 77.2202C75.8277 77.6914 75.3052 78.1935 74.7998 78.7241L76.1914 80.0495L76.1876 80.0529C76.205 80.0726 76.2225 80.0922 76.2401 80.1118C75.3558 81.0412 74.5214 82.0732 73.7467 83.1959L72.1006 82.06C71.3148 83.1986 70.59 84.419 69.9335 85.7096L71.7162 86.6164C71.1287 87.7712 70.5971 88.9904 70.1283 90.2653L68.2512 89.5751C67.7774 90.8638 67.3654 92.2038 67.0212 93.5871L68.962 94.0701C68.6474 95.3341 68.3919 96.6384 68.201 97.9761L66.2211 97.6936C66.1235 98.3771 66.0421 99.0686 65.9774 99.7674M106.803 103.545C106.727 104.385 106.55 105.186 106.279 105.944L104.396 105.27C103.955 106.501 103.206 107.559 102.218 108.453L103.56 109.936C102.458 110.933 101.148 111.727 99.7278 112.347L98.9278 110.514C97.7941 111.009 96.5407 111.396 95.207 111.681L95.6249 113.637C94.294 113.922 92.9024 114.109 91.4838 114.207L91.346 112.212C90.0704 112.3 88.7607 112.312 87.4439 112.251L87.3515 114.249C85.9846 114.186 84.6113 114.048 83.2577 113.839L83.5623 111.863C82.2614 111.662 80.9797 111.393 79.7439 111.057L79.2196 112.987C77.8515 112.615 76.5257 112.165 75.2755 111.636L76.0547 109.794C74.8 109.263 73.6394 108.652 72.6113 107.966L71.5014 109.63C70.2171 108.773 69.0685 107.779 68.1505 106.638L69.7087 105.384C68.8592 104.329 68.2816 103.165 68.0498 101.901L66.0826 102.262C65.9344 101.455 65.8968 100.621 65.9774 99.7674M106.803 103.545C106.803 103.544 106.803 103.544 106.803 103.543L104.811 103.363L106.803 103.547C106.803 103.546 106.803 103.546 106.803 103.545ZM65.9774 99.7674C65.9774 99.7681 65.9773 99.7688 65.9772 99.7695L67.9687 99.9538L65.9776 99.7653C65.9776 99.766 65.9775 99.7667 65.9774 99.7674ZM82.3698 76.4429C83.4887 77.4535 84.8045 78.2298 86.2586 78.6957L85.6484 80.6003C86.4932 80.871 87.3763 81.0536 88.2887 81.138C89.2011 81.2224 90.1027 81.205 90.9828 81.0939L90.7324 79.1096C92.2473 78.9185 93.6832 78.3968 94.9686 77.6086L96.014 79.3136C97.5123 78.3949 98.827 77.1756 99.8836 75.7336L98.2703 74.5515C99.1409 73.3635 99.8122 71.9927 100.223 70.4939L102.152 71.0228C102.379 70.1956 102.537 69.3365 102.618 68.4527C102.7 67.569 102.703 66.6955 102.631 65.8407L100.638 66.0067C100.509 64.458 100.101 62.9873 99.4632 61.6597L101.266 60.7937C100.492 59.1824 99.4232 57.7425 98.1189 56.5645L96.7784 58.0487C95.6595 57.0381 94.3436 56.2618 92.8896 55.7959L93.4998 53.8913C92.655 53.6206 91.7719 53.438 90.8595 53.3536C89.9471 53.2692 89.0455 53.2866 88.1654 53.3977L88.4158 55.382C86.9009 55.5731 85.4649 56.0948 84.1796 56.883L83.1341 55.178C81.6359 56.0967 80.3211 57.316 79.2646 58.758L80.8778 59.9401C80.0073 61.1281 79.336 62.4989 78.925 63.9977L76.9962 63.4688C76.7694 64.296 76.6116 65.1551 76.5298 66.0389C76.448 66.9226 76.4455 67.7961 76.5167 68.6509L78.5098 68.4849C78.6388 70.0337 79.0472 71.5043 79.685 72.8319L77.8822 73.6979C78.6563 75.3092 79.7249 76.7491 81.0292 77.9271L82.3698 76.4429Z" fill="#FCF8FF" stroke="#FCF8FF" stroke-width="4" stroke-dasharray="4 4"/>
<path d="M79.8469 80.7605C81.3988 81.9744 83.1719 82.9031 85.1041 83.4673L84.8238 84.4272C85.8223 84.7188 86.8603 84.9188 87.9297 85.0177C88.9991 85.1167 90.0562 85.1105 91.0912 85.0071L90.9918 84.0121C92.9947 83.812 94.9081 83.2244 96.6564 82.3158L97.1176 83.2032C97.75 82.8745 98.3617 82.5065 98.9495 82.1021C99.1291 82.3536 99.3047 82.6114 99.4763 82.8753L100.315 82.3302C101.016 83.4088 101.649 84.5796 102.206 85.8292L101.293 86.2365C101.8 87.3728 102.243 88.5797 102.615 89.8463L103.575 89.5642C103.94 90.8071 104.239 92.1032 104.466 93.4424L103.48 93.6094C103.691 94.8546 103.838 96.1396 103.916 97.456L104.914 97.3966C104.992 98.6969 105.004 100.026 104.946 101.376L103.947 101.333C103.919 101.974 103.876 102.62 103.816 103.271L103.815 103.273C103.762 103.867 103.638 104.419 103.454 104.933L104.396 105.27C103.955 106.501 103.206 107.559 102.218 108.453L101.547 107.711C100.731 108.45 99.7133 109.08 98.5278 109.598L98.9278 110.514C97.7941 111.009 96.5407 111.396 95.207 111.681L94.998 110.704C93.8199 110.955 92.5697 111.125 91.2771 111.214L91.346 112.212C90.0704 112.3 88.7607 112.312 87.4439 112.251L87.4901 111.252C86.2303 111.194 84.9634 111.067 83.7146 110.874L83.5623 111.863C82.2614 111.662 80.9797 111.393 79.7439 111.057L80.0061 110.092C78.7554 109.752 77.5585 109.344 76.4443 108.873L76.0547 109.794C74.8 109.263 73.6394 108.652 72.6113 107.966L73.1663 107.135C72.0805 106.41 71.1764 105.613 70.4878 104.757L69.7087 105.384C68.8592 104.329 68.2816 103.165 68.0498 101.901L69.0334 101.721C68.9354 101.187 68.9092 100.63 68.9643 100.048L68.9645 100.046C69.0246 99.3957 69.1004 98.7526 69.191 98.1174L68.201 97.9761C68.3919 96.6384 68.6474 95.3341 68.962 94.0701L69.9324 94.3115C70.2508 93.0318 70.6311 91.7957 71.0669 90.6103L70.1283 90.2653C70.5971 88.9904 71.1287 87.7712 71.7161 86.6164L72.6075 87.0698C73.2061 85.893 73.8631 84.7879 74.5698 83.7639L73.7467 83.1959C74.5238 82.0698 75.3608 81.035 76.2481 80.1034L76.9722 80.7931C77.1893 80.5652 77.4093 80.344 77.6319 80.1297C78.1356 80.635 78.6693 81.109 79.2308 81.5482L79.8469 80.7605ZM100.638 66.0067C100.509 64.458 100.101 62.9873 99.4632 61.6597L98.5618 62.0927C97.9518 60.8229 97.1154 59.7006 96.1081 58.7908L96.7784 58.0487C95.6595 57.0381 94.3436 56.2618 92.8896 55.7959L92.5844 56.7482C91.9454 56.5435 91.2764 56.405 90.5831 56.3408C89.8897 56.2767 89.2067 56.2901 88.541 56.3741L88.4158 55.382C86.9009 55.5731 85.4649 56.0948 84.1796 56.883L84.7023 57.7355C83.5452 58.445 82.5171 59.3948 81.6845 60.5311L80.8778 59.9401C80.0073 61.1281 79.336 62.4989 78.925 63.9977L79.8894 64.2621C79.7089 64.9205 79.5826 65.6067 79.517 66.3153C79.4515 67.0238 79.4497 67.7215 79.5064 68.4019L78.5098 68.4849C78.6388 70.0337 79.0472 71.5043 79.685 72.8319L80.5864 72.3989C81.1964 73.6687 82.0327 74.791 83.04 75.7008L82.3698 76.4429C83.4887 77.4535 84.8045 78.2298 86.2586 78.6957L86.5637 77.7434C87.2028 77.9481 87.8717 78.0866 88.5651 78.1508C89.2584 78.2149 89.9415 78.2015 90.6072 78.1175L90.7324 79.1096C92.2473 78.9185 93.6832 78.3968 94.9686 77.6086L94.4459 76.7561C95.603 76.0466 96.6311 75.0968 97.4637 73.9605L98.2703 74.5515C99.1409 73.3635 99.8122 71.9928 100.223 70.4939L99.2588 70.2295C99.4393 69.5711 99.5656 68.8849 99.6311 68.1763C99.6967 67.4678 99.6985 66.7701 99.6418 66.0897L100.638 66.0067Z" stroke="#B794F4" stroke-width="2" stroke-dasharray="4 4"/>
</g>
<rect x="1.14278" y="46.0528" width="38" height="78" rx="7" transform="rotate(-8.90732 1.14278 46.0528)" stroke="#B794F4" stroke-width="2"/>
<path d="M15.9023 49.8125L25.7817 48.2641" stroke="#B794F4" stroke-width="2" stroke-linecap="round" stroke-linejoin="round"/>
<defs>
<linearGradient id="paint0_linear" x1="822" y1="78.0005" x2="779.413" y2="67.7202" gradientUnits="userSpaceOnUse">
<stop stop-color="#E9D8FD"/>
<stop offset="1" stop-color="#E9D8FD" stop-opacity="0"/>
</linearGradient>
<linearGradient id="paint1_linear" x1="496" y1="91.6404" x2="395.432" y2="71.6033" gradientUnits="userSpaceOnUse">
<stop stop-color="#E9D8FD"/>
<stop offset="1" stop-color="#E9D8FD" stop-opacity="0"/>
</linearGradient>
<linearGradient id="paint2_linear" x1="157.002" y1="37.6406" x2="89.7075" y2="100.746" gradientUnits="userSpaceOnUse">
<stop stop-color="#E9D8FD"/>
<stop offset="1" stop-color="#E9D8FD" stop-opacity="0"/>
</linearGradient>
</defs>
</svg>
