<svg width="824" height="175" xmlns="http://www.w3.org/2000/svg" fill="none">
 <mask height="118" width="152" y="7" x="21" maskUnits="userSpaceOnUse" mask-type="alpha" id="mask0">
  <path id="svg_1" fill="#C4C4C4" d="m172.953,7.64062l-150.9999,0l0,30.91168l12.0691,-1.8915c4.3649,-0.6841 8.4581,2.2998 9.1422,6.6648l10.4031,66.3774c0.6841,4.365 -2.2998,8.458 -6.6648,9.143l-24.9496,3.91l0,1.885l150.9999,0l0,-117.00038z" clip-rule="evenodd" fill-rule="evenodd"/>
 </mask>
 <defs>
  <linearGradient y2="0.40375" x2="0.53512" y1="0.52839" x1="0.9964" id="paint0_linear">
   <stop stop-color="#E9D8FD"/>
   <stop stop-opacity="0" stop-color="#E9D8FD" offset="1"/>
  </linearGradient>
  <linearGradient y2="0.55645" x2="0.33464" y1="0.83504" x1="1.04762" id="paint1_linear">
   <stop stop-color="#E9D8FD"/>
   <stop stop-opacity="0" stop-color="#E9D8FD" offset="1"/>
  </linearGradient>
  <linearGradient y2="0.94855" x2="0.47103" y1="0.23799" x1="1.00928" id="paint2_linear">
   <stop stop-color="#E9D8FD"/>
   <stop stop-opacity="0" stop-color="#E9D8FD" offset="1"/>
  </linearGradient>
 </defs>
 <g>
  <title>Layer 1</title>
  <rect id="svg_2" fill="#EBF8FF" transform="rotate(2.97012 507.576 0.609375)" rx="10" height="134.246" width="248.691" y="0.60938" x="507.576"/>
  <path id="svg_3" fill="#B794F4" d="m723.519,172.641c-0.067,0 -0.127,-0.02 -0.18,-0.06c-0.04,-0.054 -0.06,-0.114 -0.06,-0.18l0,-13.52c0,-0.067 0.02,-0.12 0.06,-0.16c0.053,-0.054 0.113,-0.08 0.18,-0.08l5,0c1,0 1.873,0.18 2.62,0.54c0.76,0.346 1.346,0.84 1.76,1.48c0.413,0.64 0.62,1.38 0.62,2.22l0,5.52c0,0.84 -0.207,1.58 -0.62,2.22c-0.414,0.64 -1,1.14 -1.76,1.5c-0.747,0.346 -1.62,0.52 -2.62,0.52l-5,0zm2.58,-2.52c0,0.066 0.033,0.1 0.1,0.1l2.42,0c0.613,0 1.106,-0.207 1.48,-0.62c0.386,-0.414 0.586,-0.967 0.6,-1.66l0,-4.6c0,-0.694 -0.194,-1.247 -0.58,-1.66c-0.374,-0.414 -0.88,-0.62 -1.52,-0.62l-2.4,0c-0.067,0 -0.1,0.033 -0.1,0.1l0,8.96zm18.681,2.52c-0.133,0 -0.22,-0.067 -0.26,-0.2l-0.6,-1.96c-0.027,-0.054 -0.06,-0.08 -0.1,-0.08l-4.92,0c-0.04,0 -0.073,0.026 -0.1,0.08l-0.58,1.96c-0.04,0.133 -0.127,0.2 -0.26,0.2l-2.54,0c-0.08,0 -0.14,-0.02 -0.18,-0.06c-0.04,-0.054 -0.047,-0.127 -0.02,-0.22l4.32,-13.52c0.04,-0.134 0.127,-0.2 0.26,-0.2l3.14,0c0.133,0 0.22,0.066 0.26,0.2l4.32,13.52c0.013,0.026 0.02,0.06 0.02,0.1c0,0.12 -0.073,0.18 -0.22,0.18l-2.54,0zm-5.26,-4.54c-0.013,0.08 0.013,0.12 0.08,0.12l3.52,0c0.08,0 0.107,-0.04 0.08,-0.12l-1.8,-5.94c-0.013,-0.054 -0.033,-0.074 -0.06,-0.06c-0.027,0 -0.047,0.02 -0.06,0.06l-1.76,5.94zm18.719,-9.46c0.067,0 0.12,0.026 0.16,0.08c0.054,0.04 0.08,0.093 0.08,0.16l0,1.96c0,0.066 -0.026,0.126 -0.08,0.18c-0.04,0.04 -0.093,0.06 -0.16,0.06l-3.58,0c-0.066,0 -0.1,0.033 -0.1,0.1l0,11.22c0,0.066 -0.026,0.126 -0.08,0.18c-0.04,0.04 -0.093,0.06 -0.16,0.06l-2.34,0c-0.066,0 -0.126,-0.02 -0.18,-0.06c-0.04,-0.054 -0.06,-0.114 -0.06,-0.18l0,-11.22c0,-0.067 -0.033,-0.1 -0.1,-0.1l-3.48,0c-0.066,0 -0.126,-0.02 -0.18,-0.06c-0.04,-0.054 -0.06,-0.114 -0.06,-0.18l0,-1.96c0,-0.067 0.02,-0.12 0.06,-0.16c0.054,-0.054 0.114,-0.08 0.18,-0.08l10.08,0zm10.651,14c-0.134,0 -0.22,-0.067 -0.26,-0.2l-0.6,-1.96c-0.027,-0.054 -0.06,-0.08 -0.1,-0.08l-4.92,0c-0.04,0 -0.074,0.026 -0.1,0.08l-0.58,1.96c-0.04,0.133 -0.127,0.2 -0.26,0.2l-2.54,0c-0.08,0 -0.14,-0.02 -0.18,-0.06c-0.04,-0.054 -0.047,-0.127 -0.02,-0.22l4.32,-13.52c0.04,-0.134 0.126,-0.2 0.26,-0.2l3.14,0c0.133,0 0.22,0.066 0.26,0.2l4.32,13.52c0.013,0.026 0.02,0.06 0.02,0.1c0,0.12 -0.074,0.18 -0.22,0.18l-2.54,0zm-5.26,-4.54c-0.014,0.08 0.013,0.12 0.08,0.12l3.52,0c0.08,0 0.106,-0.04 0.08,-0.12l-1.8,-5.94c-0.014,-0.054 -0.034,-0.074 -0.06,-0.06c-0.027,0 -0.047,0.02 -0.06,0.06l-1.76,5.94zm19.078,-2.76c-0.08,0.04 -0.08,0.08 0,0.12c1.266,0.653 1.9,1.74 1.9,3.26c0,1.293 -0.44,2.273 -1.321,2.94c-0.879,0.653 -2.033,0.98 -3.459,0.98l-5.18,0c-0.067,0 -0.127,-0.02 -0.18,-0.06c-0.04,-0.054 -0.06,-0.114 -0.06,-0.18l0,-13.52c0,-0.067 0.02,-0.12 0.06,-0.16c0.053,-0.054 0.113,-0.08 0.18,-0.08l5.02,0c3.16,0 4.74,1.28 4.74,3.84c0,1.333 -0.567,2.286 -1.7,2.86zm-5.38,-4.28c-0.067,0 -0.1,0.033 -0.1,0.1l0,3.12c0,0.066 0.033,0.1 0.1,0.1l2.34,0c0.626,0 1.113,-0.147 1.46,-0.44c0.346,-0.294 0.52,-0.694 0.52,-1.2c0,-0.52 -0.174,-0.927 -0.52,-1.22c-0.347,-0.307 -0.834,-0.46 -1.46,-0.46l-2.34,0zm2.5,9.14c0.613,0 1.093,-0.154 1.44,-0.46c0.346,-0.32 0.52,-0.754 0.52,-1.3c0,-0.547 -0.174,-0.974 -0.52,-1.28c-0.347,-0.32 -0.834,-0.48 -1.46,-0.48l-2.48,0c-0.067,0 -0.1,0.033 -0.1,0.1l0,3.32c0,0.066 0.033,0.1 0.1,0.1l2.5,0zm16.12,2.44c-0.133,0 -0.22,-0.067 -0.26,-0.2l-0.6,-1.96c-0.027,-0.054 -0.06,-0.08 -0.1,-0.08l-4.92,0c-0.04,0 -0.073,0.026 -0.1,0.08l-0.58,1.96c-0.04,0.133 -0.127,0.2 -0.26,0.2l-2.54,0c-0.08,0 -0.14,-0.02 -0.18,-0.06c-0.04,-0.054 -0.047,-0.127 -0.02,-0.22l4.32,-13.52c0.04,-0.134 0.127,-0.2 0.26,-0.2l3.14,0c0.133,0 0.22,0.066 0.26,0.2l4.32,13.52c0.013,0.026 0.02,0.06 0.02,0.1c0,0.12 -0.073,0.18 -0.22,0.18l-2.54,0zm-5.26,-4.54c-0.013,0.08 0.013,0.12 0.08,0.12l3.52,0c0.08,0 0.107,-0.04 0.08,-0.12l-1.8,-5.94c-0.013,-0.054 -0.033,-0.074 -0.06,-0.06c-0.027,0 -0.047,0.02 -0.06,0.06l-1.76,5.94zm14.699,4.7c-1.066,0 -2,-0.167 -2.8,-0.5c-0.8,-0.347 -1.42,-0.834 -1.86,-1.46c-0.426,-0.64 -0.64,-1.38 -0.64,-2.22l0,-0.44c0,-0.067 0.02,-0.12 0.06,-0.16c0.054,-0.054 0.114,-0.08 0.18,-0.08l2.28,0c0.067,0 0.12,0.026 0.16,0.08c0.054,0.04 0.08,0.093 0.08,0.16l0,0.3c0,0.533 0.247,0.986 0.74,1.36c0.494,0.36 1.16,0.54 2,0.54c0.707,0 1.234,-0.147 1.58,-0.44c0.347,-0.307 0.52,-0.68 0.52,-1.12c0,-0.32 -0.106,-0.587 -0.32,-0.8c-0.213,-0.227 -0.506,-0.42 -0.88,-0.58c-0.36,-0.174 -0.94,-0.407 -1.74,-0.7c-0.893,-0.307 -1.653,-0.62 -2.28,-0.94c-0.613,-0.32 -1.133,-0.754 -1.56,-1.3c-0.413,-0.56 -0.62,-1.247 -0.62,-2.06c0,-0.8 0.207,-1.5 0.62,-2.1c0.414,-0.6 0.987,-1.06 1.72,-1.38c0.734,-0.32 1.58,-0.48 2.54,-0.48c1.014,0 1.914,0.18 2.7,0.54c0.8,0.36 1.42,0.866 1.86,1.52c0.454,0.64 0.68,1.386 0.68,2.24l0,0.3c0,0.066 -0.026,0.126 -0.08,0.18c-0.04,0.04 -0.093,0.06 -0.16,0.06l-2.3,0c-0.066,0 -0.126,-0.02 -0.18,-0.06c-0.04,-0.054 -0.06,-0.114 -0.06,-0.18l0,-0.16c0,-0.56 -0.233,-1.034 -0.7,-1.42c-0.453,-0.4 -1.08,-0.6 -1.88,-0.6c-0.626,0 -1.12,0.133 -1.48,0.4c-0.346,0.266 -0.52,0.633 -0.52,1.1c0,0.333 0.1,0.613 0.3,0.84c0.214,0.226 0.52,0.433 0.92,0.62c0.414,0.173 1.047,0.413 1.9,0.72c0.947,0.346 1.687,0.653 2.22,0.92c0.547,0.266 1.034,0.666 1.46,1.2c0.44,0.52 0.66,1.2 0.66,2.04c0,1.253 -0.46,2.246 -1.38,2.98c-0.92,0.72 -2.166,1.08 -3.74,1.08zm17.815,-11.98c0,0.066 -0.027,0.126 -0.08,0.18c-0.04,0.04 -0.094,0.06 -0.16,0.06l-6.56,0c-0.067,0 -0.1,0.033 -0.1,0.1l0,3.1c0,0.066 0.033,0.1 0.1,0.1l4.3,0c0.066,0 0.12,0.026 0.16,0.08c0.053,0.04 0.08,0.093 0.08,0.16l0,1.94c0,0.066 -0.027,0.126 -0.08,0.18c-0.04,0.04 -0.094,0.06 -0.16,0.06l-4.3,0c-0.067,0 -0.1,0.033 -0.1,0.1l0,3.24c0,0.066 0.033,0.1 0.1,0.1l6.56,0c0.066,0 0.12,0.026 0.16,0.08c0.053,0.04 0.08,0.093 0.08,0.16l0,1.94c0,0.066 -0.027,0.126 -0.08,0.18c-0.04,0.04 -0.094,0.06 -0.16,0.06l-9.24,0c-0.067,0 -0.127,-0.02 -0.18,-0.06c-0.04,-0.054 -0.06,-0.114 -0.06,-0.18l0,-13.52c0,-0.067 0.02,-0.12 0.06,-0.16c0.053,-0.054 0.113,-0.08 0.18,-0.08l9.24,0c0.066,0 0.12,0.026 0.16,0.08c0.053,0.04 0.08,0.093 0.08,0.16l0,1.94z"/>
  <path id="svg_4" fill="#FDFBFF" d="m770.879,116.395c23.681,2.629 44.022,-5.534 44.936,-13.77l6.517,-58.6813c-2.832,5.0568 -20.151,7.6864 -43.832,5.0568c-23.681,-2.6297 -42.49,-9.5 -41.926,-14.5796l-6.516,58.6815c-1.115,10.0376 17.14,20.6626 40.821,23.2926z"/>
  <path id="svg_5" fill-opacity="0.5" fill="url(#paint0_linear)" d="m770.879,116.395c23.681,2.629 44.022,-5.534 44.936,-13.77l6.517,-58.6813c-2.832,5.0568 -20.151,7.6864 -43.832,5.0568c-23.681,-2.6297 -42.49,-9.5 -41.926,-14.5796l-6.516,58.6815c-1.115,10.0376 17.14,20.6626 40.821,23.2926z"/>
  <path id="svg_6" fill="#FDFBFF" d="m822.331,43.9437c-0.599,5.4015 -20.283,7.6486 -43.964,5.0189c-23.681,-2.6296 -42.393,-9.1402 -41.793,-14.5417c0.6,-5.4015 20.284,-7.6485 43.965,-5.0189c23.681,2.6297 42.392,9.1402 41.792,14.5417z"/>
  <path id="svg_7" stroke-width="2" stroke="#B794F4" d="m822.331,43.9437c-0.599,5.4015 -20.283,7.6486 -43.964,5.0189c-23.681,-2.6296 -42.393,-9.1402 -41.793,-14.5417m85.757,9.5228c0.6,-5.4015 -18.111,-11.912 -41.792,-14.5417c-23.681,-2.6296 -43.365,-0.3826 -43.965,5.0189m85.757,9.5228c-2.972,26.767 -3.543,31.9145 -6.516,58.6813c-0.914,8.236 -21.255,16.399 -44.936,13.77c-23.681,-2.63 -41.936,-13.255 -40.821,-23.2926c2.972,-26.767 3.544,-31.9145 6.516,-58.6815"/>
  <path id="svg_8" stroke-width="2" stroke="#B794F4" d="m820.716,58.4964c-3.618,10.9643 -21.812,16.8216 -44.02,16.0852c-22.209,-0.7363 -41.585,-5.9699 -43.231,-12.152"/>
  <path id="svg_9" stroke-width="2" stroke="#B794F4" d="m817.62,86.3771c-2.483,8.3561 -27.383,11.9002 -47.813,7.9786c-20.429,-3.9216 -37.385,-11.9982 -37.801,-18.7883"/>
  <path id="svg_10" stroke-linejoin="round" stroke-linecap="round" stroke-width="2" stroke="#63B3ED" d="m564,100.641l132,0"/>
  <path id="svg_11" stroke-linejoin="round" stroke-linecap="round" stroke-width="2" stroke="#63B3ED" d="m692,106.641l6,-6l-6,-6.0004"/>
  <circle id="svg_12" fill="#EBF8FF" r="25.5" cy="100.141" cx="634.5"/>
  <path id="svg_13" stroke-linejoin="round" stroke-width="2" stroke="#63B3ED" d="m645.812,108.07l6.077,6.076c0.781,0.782 0.781,2.048 0,2.829l-0.555,0.554c-0.781,0.781 -2.047,0.781 -2.828,0l-6.076,-6.076"/>
  <circle id="svg_14" stroke-linejoin="round" stroke-linecap="round" stroke-width="2" stroke="#63B3ED" r="15" cy="98.6406" cx="633"/>
  <path id="svg_15" fill="#63B3ED" d="m632.902,96.8219c1.782,-0.1387 3.108,-1.7651 2.962,-3.6326c-0.145,-1.8675 -1.707,-3.269 -3.488,-3.1303c-1.782,0.1387 -3.108,1.765 -2.962,3.6326c0.145,1.8675 1.707,3.269 3.488,3.1303z"/>
  <path id="svg_16" fill="#63B3ED" d="m628.025,103.637c-0.2,-2.568 0.507,-4.9107 1.757,-6.4086c0.893,0.6959 2.026,1.0723 3.228,0.9788c1.202,-0.0936 2.263,-0.6409 3.038,-1.4667c1.466,1.2865 2.528,3.4915 2.728,6.0595c0.324,4.055 -10.459,4.694 -10.751,0.837z"/>
  <path id="svg_17" stroke-linejoin="round" stroke-linecap="round" stroke-width="2" stroke="#63B3ED" d="m702,44.6406l-164,0"/>
  <path id="svg_18" stroke-linejoin="round" stroke-linecap="round" stroke-width="2" stroke="#63B3ED" d="m542,50.6406l-6,-6l6,-6"/>
  <ellipse id="svg_19" fill="#EBF8FF" ry="19.5" rx="28.5" cy="44.1406" cx="624.5"/>
  <path id="svg_20" fill="#63B3ED" d="m611.628,57.1214l0.618,-1.9565c-0.423,-0.0228 -0.758,-0.1649 -1.006,-0.4262c-0.24,-0.2521 -0.417,-0.5749 -0.533,-0.9684c-0.116,-0.3934 -0.182,-0.8289 -0.196,-1.3063c-0.007,-0.4682 0.011,-0.9298 0.054,-1.3848l0.194,-2.0602c0.094,-1.0028 -0.067,-1.9105 -0.484,-2.7233c-0.416,-0.8128 -1.128,-1.4706 -2.135,-1.9735c1.075,-0.3069 1.893,-0.8249 2.455,-1.5541c0.57,-0.7285 0.902,-1.594 0.996,-2.5968l0.194,-2.0602c0.043,-0.455 0.095,-0.9134 0.155,-1.3753c0.07,-0.4695 0.186,-0.8879 0.348,-1.2552c0.162,-0.3673 0.393,-0.6516 0.692,-0.8529c0.301,-0.2098 0.707,-0.282 1.219,-0.2168l-0.243,-2.0248c-0.817,-0.077 -1.535,0.0127 -2.154,0.2689c-0.62,0.2563 -1.133,0.6117 -1.542,1.0663c-0.491,0.5234 -0.874,1.1589 -1.148,1.9066c-0.274,0.7394 -0.444,1.4672 -0.512,2.1834l-0.194,2.0602c-0.107,1.1376 -0.445,1.9261 -1.013,2.3657c-0.568,0.4395 -1.388,0.6089 -2.458,0.5082l-0.238,2.5279c1.07,0.1007 1.844,0.42 2.32,0.9579c0.476,0.5379 0.662,1.3672 0.556,2.4879l-0.194,2.0603c-0.062,0.6656 -0.038,1.3523 0.074,2.0599c0.12,0.7168 0.355,1.385 0.704,2.0045c0.327,0.5918 0.777,1.0974 1.349,1.5169c0.581,0.4286 1.288,0.6822 2.122,0.7607zm23.596,0.2064l0.242,2.0375c0.834,0.0785 1.572,-0.0348 2.212,-0.34c0.649,-0.296 1.19,-0.7169 1.624,-1.2626c0.432,-0.5205 0.778,-1.1255 1.038,-1.815c0.26,-0.6896 0.422,-1.363 0.483,-2.0203l0.194,-2.0602c0.038,-0.396 0.1,-0.7471 0.189,-1.0534c0.097,-0.3138 0.22,-0.5828 0.369,-0.8068c0.277,-0.416 0.657,-0.699 1.138,-0.8492c0.483,-0.1586 1.074,-0.205 1.773,-0.1392l0.238,-2.5279c-0.624,-0.0587 -1.151,-0.1891 -1.583,-0.3912c-0.423,-0.2014 -0.74,-0.4863 -0.952,-0.8547c-0.162,-0.2703 -0.272,-0.5909 -0.33,-0.962c-0.05,-0.3702 -0.053,-0.7913 -0.009,-1.2632l0.194,-2.0602c0.06,-0.6404 0.043,-1.3094 -0.053,-2.007c-0.087,-0.7052 -0.289,-1.3534 -0.608,-1.9444c-0.33,-0.6516 -0.785,-1.1875 -1.366,-1.6078c-0.58,-0.4286 -1.321,-0.6854 -2.223,-0.7703l-0.616,1.944c0.515,0.0315 0.901,0.1783 1.157,0.4404c0.257,0.2537 0.43,0.5761 0.521,0.9672c0.091,0.3911 0.122,0.8233 0.095,1.2968c-0.019,0.4658 -0.049,0.9262 -0.092,1.3813l-0.194,2.0602c-0.055,0.5814 -0.027,1.1409 0.084,1.6784c0.112,0.529 0.317,1.0201 0.614,1.4731c0.201,0.3079 0.446,0.5945 0.735,0.8598c0.29,0.2653 0.629,0.5013 1.017,0.7079c-0.517,0.1638 -0.971,0.3804 -1.361,0.6496c-0.382,0.2616 -0.709,0.5709 -0.98,0.9279c-0.272,0.3569 -0.487,0.749 -0.647,1.176c-0.15,0.4279 -0.249,0.8862 -0.295,1.3749l-0.194,2.0602c-0.043,0.4551 -0.115,0.9115 -0.218,1.3694c-0.103,0.4663 -0.249,0.8819 -0.436,1.2468c-0.187,0.3649 -0.427,0.6485 -0.718,0.8506c-0.283,0.2113 -0.63,0.2892 -1.042,0.2334z"/>
  <path id="svg_21" fill="#4299E1" d="m624.611,42.9976c2.054,0.0758 3.785,-1.6823 3.868,-3.9268c0.083,-2.2445 -1.514,-4.1255 -3.568,-4.2013c-2.053,-0.0759 -3.785,1.6822 -3.868,3.9267c-0.083,2.2446 1.515,4.1255 3.568,4.2014z"/>
  <path id="svg_22" fill="#4299E1" d="m618.131,50.4564c0.114,-3.0866 1.234,-5.7813 2.861,-7.3968c0.928,0.9499 2.173,1.5518 3.558,1.6029c1.385,0.0512 2.67,-0.4572 3.666,-1.3362c1.503,1.7311 2.422,4.5011 2.308,7.5878c-0.17,4.8747 -12.574,4.1774 -12.393,-0.4577z"/>
  <path id="svg_23" fill="#B794F4" d="m391.17,172.801c-1.066,0 -2,-0.167 -2.8,-0.5c-0.8,-0.347 -1.42,-0.834 -1.86,-1.46c-0.426,-0.64 -0.64,-1.38 -0.64,-2.22l0,-0.44c0,-0.067 0.02,-0.12 0.06,-0.16c0.054,-0.054 0.114,-0.08 0.18,-0.08l2.28,0c0.067,0 0.12,0.026 0.16,0.08c0.054,0.04 0.08,0.093 0.08,0.16l0,0.3c0,0.533 0.247,0.986 0.74,1.36c0.494,0.36 1.16,0.54 2,0.54c0.707,0 1.234,-0.147 1.58,-0.44c0.347,-0.307 0.52,-0.68 0.52,-1.12c0,-0.32 -0.106,-0.587 -0.32,-0.8c-0.213,-0.227 -0.506,-0.42 -0.88,-0.58c-0.36,-0.174 -0.94,-0.407 -1.74,-0.7c-0.893,-0.307 -1.653,-0.62 -2.28,-0.94c-0.613,-0.32 -1.133,-0.754 -1.56,-1.3c-0.413,-0.56 -0.62,-1.247 -0.62,-2.06c0,-0.8 0.207,-1.5 0.62,-2.1c0.414,-0.6 0.987,-1.06 1.72,-1.38c0.734,-0.32 1.58,-0.48 2.54,-0.48c1.014,0 1.914,0.18 2.7,0.54c0.8,0.36 1.42,0.866 1.86,1.52c0.454,0.64 0.68,1.386 0.68,2.24l0,0.3c0,0.066 -0.026,0.126 -0.08,0.18c-0.04,0.04 -0.093,0.06 -0.16,0.06l-2.3,0c-0.066,0 -0.126,-0.02 -0.18,-0.06c-0.04,-0.054 -0.06,-0.114 -0.06,-0.18l0,-0.16c0,-0.56 -0.233,-1.034 -0.7,-1.42c-0.453,-0.4 -1.08,-0.6 -1.88,-0.6c-0.626,0 -1.12,0.133 -1.48,0.4c-0.346,0.266 -0.52,0.633 -0.52,1.1c0,0.333 0.1,0.613 0.3,0.84c0.214,0.226 0.52,0.433 0.92,0.62c0.414,0.173 1.047,0.413 1.9,0.72c0.947,0.346 1.687,0.653 2.22,0.92c0.547,0.266 1.034,0.666 1.46,1.2c0.44,0.52 0.66,1.2 0.66,2.04c0,1.253 -0.46,2.246 -1.38,2.98c-0.92,0.72 -2.166,1.08 -3.74,1.08zm17.815,-11.98c0,0.066 -0.027,0.126 -0.08,0.18c-0.04,0.04 -0.093,0.06 -0.16,0.06l-6.56,0c-0.067,0 -0.1,0.033 -0.1,0.1l0,3.1c0,0.066 0.033,0.1 0.1,0.1l4.3,0c0.067,0 0.12,0.026 0.16,0.08c0.053,0.04 0.08,0.093 0.08,0.16l0,1.94c0,0.066 -0.027,0.126 -0.08,0.18c-0.04,0.04 -0.093,0.06 -0.16,0.06l-4.3,0c-0.067,0 -0.1,0.033 -0.1,0.1l0,3.24c0,0.066 0.033,0.1 0.1,0.1l6.56,0c0.067,0 0.12,0.026 0.16,0.08c0.053,0.04 0.08,0.093 0.08,0.16l0,1.94c0,0.066 -0.027,0.126 -0.08,0.18c-0.04,0.04 -0.093,0.06 -0.16,0.06l-9.24,0c-0.067,0 -0.127,-0.02 -0.18,-0.06c-0.04,-0.054 -0.06,-0.114 -0.06,-0.18l0,-13.52c0,-0.067 0.02,-0.12 0.06,-0.16c0.053,-0.054 0.113,-0.08 0.18,-0.08l9.24,0c0.067,0 0.12,0.026 0.16,0.08c0.053,0.04 0.08,0.093 0.08,0.16l0,1.94zm10.64,11.82c-0.134,0 -0.227,-0.06 -0.28,-0.18l-2.5,-5.54c-0.027,-0.054 -0.067,-0.08 -0.12,-0.08l-1.86,0c-0.067,0 -0.1,0.033 -0.1,0.1l0,5.46c0,0.066 -0.027,0.126 -0.08,0.18c-0.04,0.04 -0.094,0.06 -0.16,0.06l-2.34,0c-0.067,0 -0.127,-0.02 -0.18,-0.06c-0.04,-0.054 -0.06,-0.114 -0.06,-0.18l0,-13.52c0,-0.067 0.02,-0.12 0.06,-0.16c0.053,-0.054 0.113,-0.08 0.18,-0.08l5.72,0c0.853,0 1.6,0.173 2.24,0.52c0.653,0.346 1.153,0.84 1.5,1.48c0.36,0.64 0.54,1.38 0.54,2.22c0,0.906 -0.227,1.686 -0.68,2.34c-0.454,0.64 -1.087,1.093 -1.9,1.36c-0.067,0.026 -0.087,0.073 -0.06,0.14l2.72,5.66c0.026,0.053 0.04,0.093 0.04,0.12c0,0.106 -0.074,0.16 -0.22,0.16l-2.46,0zm-4.76,-11.58c-0.067,0 -0.1,0.033 -0.1,0.1l0,3.42c0,0.066 0.033,0.1 0.1,0.1l2.62,0c0.56,0 1.013,-0.167 1.36,-0.5c0.36,-0.334 0.54,-0.767 0.54,-1.3c0,-0.534 -0.18,-0.967 -0.54,-1.3c-0.347,-0.347 -0.8,-0.52 -1.36,-0.52l-2.62,0zm13.636,11.58c-0.134,0 -0.22,-0.067 -0.26,-0.2l-4.12,-13.52l-0.02,-0.08c0,-0.134 0.073,-0.2 0.22,-0.2l2.52,0c0.146,0 0.24,0.066 0.28,0.2l2.66,9.76c0.013,0.04 0.033,0.06 0.06,0.06c0.026,0 0.046,-0.02 0.06,-0.06l2.62,-9.76c0.04,-0.134 0.133,-0.2 0.28,-0.2l2.46,0c0.08,0 0.14,0.026 0.18,0.08c0.04,0.053 0.046,0.12 0.02,0.2l-4.18,13.52c-0.04,0.133 -0.127,0.2 -0.26,0.2l-2.52,0zm19.324,-11.82c0,0.066 -0.027,0.126 -0.08,0.18c-0.04,0.04 -0.094,0.06 -0.16,0.06l-6.56,0c-0.067,0 -0.1,0.033 -0.1,0.1l0,3.1c0,0.066 0.033,0.1 0.1,0.1l4.3,0c0.066,0 0.12,0.026 0.16,0.08c0.053,0.04 0.08,0.093 0.08,0.16l0,1.94c0,0.066 -0.027,0.126 -0.08,0.18c-0.04,0.04 -0.094,0.06 -0.16,0.06l-4.3,0c-0.067,0 -0.1,0.033 -0.1,0.1l0,3.24c0,0.066 0.033,0.1 0.1,0.1l6.56,0c0.066,0 0.12,0.026 0.16,0.08c0.053,0.04 0.08,0.093 0.08,0.16l0,1.94c0,0.066 -0.027,0.126 -0.08,0.18c-0.04,0.04 -0.094,0.06 -0.16,0.06l-9.24,0c-0.067,0 -0.127,-0.02 -0.18,-0.06c-0.04,-0.054 -0.06,-0.114 -0.06,-0.18l0,-13.52c0,-0.067 0.02,-0.12 0.06,-0.16c0.053,-0.054 0.113,-0.08 0.18,-0.08l9.24,0c0.066,0 0.12,0.026 0.16,0.08c0.053,0.04 0.08,0.093 0.08,0.16l0,1.94zm10.639,11.82c-0.133,0 -0.226,-0.06 -0.28,-0.18l-2.5,-5.54c-0.026,-0.054 -0.066,-0.08 -0.12,-0.08l-1.86,0c-0.066,0 -0.1,0.033 -0.1,0.1l0,5.46c0,0.066 -0.026,0.126 -0.08,0.18c-0.04,0.04 -0.093,0.06 -0.16,0.06l-2.34,0c-0.066,0 -0.126,-0.02 -0.18,-0.06c-0.04,-0.054 -0.06,-0.114 -0.06,-0.18l0,-13.52c0,-0.067 0.02,-0.12 0.06,-0.16c0.054,-0.054 0.114,-0.08 0.18,-0.08l5.72,0c0.854,0 1.6,0.173 2.24,0.52c0.654,0.346 1.154,0.84 1.5,1.48c0.36,0.64 0.54,1.38 0.54,2.22c0,0.906 -0.226,1.686 -0.68,2.34c-0.453,0.64 -1.086,1.093 -1.9,1.36c-0.066,0.026 -0.086,0.073 -0.06,0.14l2.72,5.66c0.027,0.053 0.04,0.093 0.04,0.12c0,0.106 -0.073,0.16 -0.22,0.16l-2.46,0zm-4.76,-11.58c-0.066,0 -0.1,0.033 -0.1,0.1l0,3.42c0,0.066 0.034,0.1 0.1,0.1l2.62,0c0.56,0 1.014,-0.167 1.36,-0.5c0.36,-0.334 0.54,-0.767 0.54,-1.3c0,-0.534 -0.18,-0.967 -0.54,-1.3c-0.346,-0.347 -0.8,-0.52 -1.36,-0.52l-2.62,0z"/>
  <path id="svg_24" fill-opacity="0.5" fill="url(#paint1_linear)" d="m353.995,36.5516c-3.311,0.1295 -5.89,2.9188 -5.76,6.2299l0.703,17.9863c0.13,3.3112 2.919,5.8904 6.23,5.7608l126.903,-4.9647c3.311,-0.1296 5.891,-2.9188 5.761,-6.23l-0.704,-17.9862c-0.129,-3.3112 -2.918,-5.8904 -6.23,-5.7609l-126.903,4.9648zm119.305,14.239c2.207,-0.0863 3.927,-1.9458 3.84,-4.1533c-0.086,-2.2074 -1.945,-3.9269 -4.153,-3.8405c-2.207,0.0863 -3.927,1.9458 -3.84,4.1533c0.086,2.2074 1.945,3.9269 4.153,3.8405zm-8.15,-3.6843c0.087,2.2075 -1.633,4.067 -3.84,4.1533c-2.208,0.0864 -4.067,-1.6331 -4.154,-3.8405c-0.086,-2.2075 1.633,-4.067 3.841,-4.1534c2.207,-0.0863 4.067,1.6332 4.153,3.8406zm-109.708,26.417c-3.311,0.1295 -5.891,2.9188 -5.761,6.23l0.704,17.9862c0.129,3.3115 2.918,5.8905 6.23,5.7605l126.903,-4.9644c3.311,-0.1296 5.89,-2.9188 5.76,-6.23l-0.703,-17.9862c-0.13,-3.3112 -2.919,-5.8904 -6.23,-5.7609l-126.903,4.9648z" clip-rule="evenodd" fill-rule="evenodd"/>
  <path id="svg_25" fill="#B794F4" d="m348.235,42.7815l-1,0.0391l1,-0.0391zm0.703,17.9863l0.999,-0.0391l-0.999,0.0391zm6.23,5.7608l0.039,0.9993l-0.039,-0.9993zm126.903,-4.9647l-0.039,-0.9993l0.039,0.9993zm5.761,-6.23l0.999,-0.0391l-0.999,0.0391zm-0.704,-17.9862l-0.999,0.039l0.999,-0.039zm-137.447,42.4056l-0.999,0.0391l0.999,-0.0391zm5.761,-6.23l0.039,0.9992l-0.039,-0.9992zm-5.057,24.2162l0.999,-0.0391l-0.999,0.0391zm138.893,-5.4339l-0.999,0.0391l0.999,-0.0391zm-0.703,-17.9862l0.999,-0.0391l-0.999,0.0391zm-6.23,-5.7609l-0.039,-0.9992l0.039,0.9992zm-133.111,-25.816c-0.108,-2.7594 2.041,-5.0837 4.801,-5.1917l-0.079,-1.9985c-3.863,0.1512 -6.872,3.4053 -6.721,7.2683l1.999,-0.0781zm0.703,17.9862l-0.703,-17.9862l-1.999,0.0781l0.704,17.9863l1.998,-0.0782zm5.192,4.8007c-2.759,0.108 -5.084,-2.0414 -5.192,-4.8007l-1.998,0.0782c0.151,3.863 3.405,6.8721 7.268,6.721l-0.078,-1.9985zm126.903,-4.9648l-126.903,4.9648l0.078,1.9985l126.903,-4.9648l-0.078,-1.9985zm4.801,-5.1916c0.108,2.7593 -2.042,5.0837 -4.801,5.1916l0.078,1.9985c3.863,-0.1511 6.872,-3.4053 6.721,-7.2683l-1.998,0.0782zm-0.704,-17.9863l0.704,17.9863l1.998,-0.0782l-0.703,-17.9862l-1.999,0.0781zm-5.192,-4.8007c2.76,-0.1079 5.084,2.0414 5.192,4.8007l1.999,-0.0781c-0.152,-3.8631 -3.406,-6.8722 -7.269,-6.721l0.078,1.9984zm-126.902,4.9648l126.902,-4.9648l-0.078,-1.9984l-126.903,4.9647l0.079,1.9985zm122.106,9.1256c0.065,1.6556 -1.225,3.0502 -2.88,3.115l0.078,1.9985c2.759,-0.108 4.909,-2.4324 4.801,-5.1917l-1.999,0.0782zm-3.115,-2.8804c1.656,-0.0648 3.05,1.2248 3.115,2.8804l1.999,-0.0782c-0.108,-2.7593 -2.433,-4.9086 -5.192,-4.8007l0.078,1.9985zm-2.88,3.115c-0.065,-1.6556 1.225,-3.0502 2.88,-3.115l-0.078,-1.9985c-2.759,0.108 -4.909,2.4323 -4.801,5.1917l1.999,-0.0782zm3.115,2.8804c-1.656,0.0648 -3.05,-1.2248 -3.115,-2.8804l-1.999,0.0782c0.108,2.7593 2.433,4.9086 5.192,4.8007l-0.078,-1.9985zm-11.912,2.4675c2.759,-0.108 4.908,-2.4324 4.8,-5.1917l-1.998,0.0782c0.065,1.6556 -1.225,3.0502 -2.88,3.115l0.078,1.9985zm-5.192,-4.8007c0.108,2.7593 2.432,4.9086 5.192,4.8007l-0.078,-1.9985c-1.656,0.0648 -3.051,-1.2248 -3.115,-2.8804l-1.999,0.0782zm4.801,-5.1917c-2.759,0.108 -4.909,2.4323 -4.801,5.1917l1.999,-0.0782c-0.065,-1.6556 1.224,-3.0502 2.88,-3.115l-0.078,-1.9985zm5.191,4.8007c-0.107,-2.7593 -2.432,-4.9086 -5.191,-4.8007l0.078,1.9985c1.656,-0.0648 3.05,1.2248 3.115,2.8804l1.998,-0.0782zm-115.469,32.647c-0.108,-2.7593 2.042,-5.0837 4.801,-5.1917l-0.078,-1.9984c-3.863,0.1511 -6.872,3.4052 -6.721,7.2683l1.998,-0.0782zm0.704,17.9862l-0.704,-17.9862l-1.998,0.0782l0.703,17.9862l1.999,-0.0782zm5.192,4.8006c-2.76,0.108 -5.084,-2.041 -5.192,-4.8006l-1.999,0.0782c0.152,3.8634 3.406,6.8724 7.269,6.7214l-0.078,-1.999zm126.902,-4.9647l-126.902,4.9647l0.078,1.999l126.903,-4.9652l-0.079,-1.9985zm4.801,-5.1916c0.108,2.7593 -2.041,5.0837 -4.801,5.1916l0.079,1.9985c3.863,-0.1511 6.872,-3.4053 6.721,-7.2683l-1.999,0.0782zm-0.704,-17.9862l0.704,17.9862l1.999,-0.0782l-0.704,-17.9862l-1.999,0.0782zm-5.191,-4.8008c2.759,-0.1079 5.084,2.0414 5.191,4.8008l1.999,-0.0782c-0.151,-3.8631 -3.405,-6.8722 -7.268,-6.721l0.078,1.9984zm-126.903,4.9648l126.903,-4.9648l-0.078,-1.9984l-126.903,4.9648l0.078,1.9984z"/>
  <path id="svg_26" stroke-width="2" stroke="#B794F4" d="m361,50.7861l28.978,-1.1337"/>
  <rect stroke="null" id="svg_27" fill="#3182CE" rx="6" height="31.1652" width="87.43701" y="89.6406" x="423"/>
  <path stroke="null" id="svg_28" fill="#EBF8FF" d="m433.13,107.15162c-0.17566,0.29457 -0.17303,0.66571 0.00703,0.95757l3.26121,5.2761c0.21168,0.34231 0.6201,0.49905 0.99865,0.38195l9.41122,-2.89523c0.51382,-0.15854 0.77205,-0.74588 0.54719,-1.24493l-6.04988,-13.46057c-0.29512,-0.65643 -1.18398,-0.7103 -1.55287,-0.09405l-6.62255,11.07917zm8.01469,-7.9073c-0.12824,-0.3052 -0.56388,-0.25817 -0.628,0.06774l-2.32931,11.89504c-0.04919,0.25043 0.18006,0.46482 0.41896,0.39186l6.5031,-1.99081c0.18972,-0.05855 0.28721,-0.27295 0.20904,-0.45942l-4.17379,-9.90441z" clip-rule="evenodd" fill-rule="evenodd"/>
  <path stroke="null" id="svg_29" fill="white" d="m454.159,110.78089l1.93208,0l0,-3.64406l2.04133,0c2.46368,0 3.78644,-1.49544 3.78644,-3.57029c0,-2.05891 -1.30736,-3.57014 -3.76004,-3.57014l-3.99981,0l0,10.7845zm1.93208,-5.24997l0,-3.90215l1.77077,0c1.44741,0 2.08826,0.78983 2.08826,1.93777c0,1.14808 -0.64085,1.96438 -2.07799,1.96438l-1.78103,0zm7.42256,5.24997l1.88515,0l0,-4.75545c0,-1.02686 0.7655,-1.7533 1.80156,-1.7533c0.31749,0 0.71344,0.05768 0.87475,0.11032l0,-1.75323c-0.17158,-0.03158 -0.46854,-0.05264 -0.67678,-0.05264c-0.91655,0 -1.68205,0.52655 -1.97387,1.46385l-0.08286,0l0,-1.34804l-1.82796,0l0,8.08849zm5.81384,0l1.88515,0l0,-8.08849l-1.88515,0l0,8.08849zm0.94808,-9.23642c0.59905,0 1.08812,-0.46339 1.08812,-1.03205c0,-0.57393 -0.48907,-1.03732 -1.08812,-1.03732c-0.60419,0 -1.09326,0.46339 -1.09326,1.03732c0,0.56867 0.48907,1.03205 1.09326,1.03205zm9.19773,3.28581c-0.2603,-1.36903 -1.34329,-2.24316 -3.21818,-2.24316c-1.92695,0 -3.23871,0.95836 -3.23358,2.45372c-0.00513,1.17959 0.71344,1.95882 2.24957,2.27986l1.36455,0.28989c0.73397,0.16311 1.07786,0.46339 1.07786,0.92158c0,0.5531 -0.59392,0.96903 -1.4892,0.96903c-0.86449,0 -1.42688,-0.37961 -1.58892,-1.10619l-1.83823,0.17942c0.23464,1.48506 1.46867,2.36438 3.43228,2.36438c1.99954,0 3.41102,-1.04836 3.41615,-2.58013c-0.00513,-1.15364 -0.73984,-1.85947 -2.24957,-2.19089l-1.36455,-0.29508c-0.81243,-0.18387 -1.13505,-0.46858 -1.12992,-0.93715c-0.00513,-0.54791 0.59319,-0.9267 1.37995,-0.9267c0.86962,0 1.32789,0.47888 1.47381,1.01122l1.71797,-0.1898zm1.72677,5.95061l1.88515,0l0,-4.91856c0,-0.99498 0.65625,-1.66915 1.46867,-1.66915c0.7963,0 1.34329,0.5422 1.34329,1.37407l0,5.21364l1.84849,0l0,-5.0446c0,-0.9112 0.53673,-1.54311 1.44814,-1.54311c0.76037,0 1.36455,0.45249 1.36455,1.4534l0,5.13431l1.89029,0l0,-5.42939c0,-1.80602 -1.03166,-2.76437 -2.49961,-2.76437c-1.16145,0 -2.0472,0.57919 -2.40135,1.47965l-0.08286,0c-0.30723,-0.91624 -1.08299,-1.47965 -2.16158,-1.47965c-1.07273,0 -1.87415,0.55814 -2.20778,1.47965l-0.09385,0l0,-1.37436l-1.80156,0l0,8.08849zm15.4625,0.16311c1.2553,0 2.0054,-0.59536 2.34856,-1.2745l0.06306,0l0,1.11138l1.81183,0l0,-5.41382c0,-2.1375 -1.72384,-2.77994 -3.24971,-2.77994c-1.68205,0 -2.97328,0.75825 -3.38975,2.23278l1.75977,0.25282c0.18771,-0.5531 0.71857,-1.02701 1.64098,-1.02701c0.87475,0 1.35356,0.45315 1.35356,1.24795l0,0.03188c0,0.54717 -0.56753,0.57386 -1.97901,0.72659c-1.55153,0.1683 -3.0356,0.63688 -3.0356,2.45928c0,1.5896 1.15045,2.43259 2.67632,2.43259zm0.4898,-1.40054c-0.78676,0 -1.34916,-0.36329 -1.34916,-1.06393c0,-0.73178 0.63058,-1.03724 1.47381,-1.15883c0.49493,-0.06821 1.48407,-0.19425 1.72897,-0.39443l0,0.95272c0,0.90082 -0.71857,1.66448 -1.85362,1.66448z"/>
  <path id="svg_30" stroke-linejoin="round" stroke-linecap="round" stroke-width="2" stroke="#D6BCFA" d="m186,100.641l47,0m85,0l-41,0"/>
  <path id="svg_31" stroke-linejoin="round" stroke-linecap="round" stroke-width="2" stroke="#D6BCFA" d="m314,106.641l6,-6l-6,-6.0004"/>
  <path id="svg_32" fill="#D6BCFA" d="m262.559,101.766c-0.079,-0.01 -0.147,-0.043 -0.205,-0.098c-0.04,-0.07 -0.054,-0.144 -0.045,-0.224l0.096,-0.762c0.1,-0.7934 0.378,-1.4035 0.835,-1.83c0.474,-0.4403 1.126,-0.8825 1.956,-1.3266c0.673,-0.3509 1.181,-0.6741 1.525,-0.9697c0.343,-0.2955 0.545,-0.6814 0.605,-1.1576c0.063,-0.508 -0.076,-0.9368 -0.419,-1.2862c-0.342,-0.3654 -0.822,-0.5869 -1.441,-0.6646c-0.667,-0.0837 -1.227,0.0152 -1.682,0.2968c-0.439,0.2835 -0.691,0.6872 -0.757,1.2111l-0.048,0.381c-0.021,0.1747 -0.128,0.25 -0.318,0.2261l-2.771,-0.4688c-0.08,-0.01 -0.148,-0.0427 -0.206,-0.0983c-0.039,-0.0695 -0.054,-0.144 -0.044,-0.2233l0.03,-0.2382c0.119,-0.9525 0.463,-1.764 1.031,-2.4345c0.57,-0.6863 1.3,-1.1751 2.192,-1.4664c0.909,-0.3051 1.919,-0.388 3.03,-0.2485c1.08,0.1356 1.999,0.4526 2.759,0.9511c0.778,0.4846 1.345,1.1041 1.702,1.8584c0.357,0.7544 0.477,1.5919 0.362,2.5127c-0.088,0.6985 -0.291,1.2858 -0.608,1.7619c-0.3,0.4623 -0.645,0.8302 -1.034,1.1039c-0.389,0.2737 -0.877,0.5671 -1.465,0.8804c-0.621,0.3251 -1.085,0.6133 -1.391,0.8653c-0.305,0.252 -0.484,0.584 -0.536,0.997l-0.069,0.548c-0.01,0.079 -0.05,0.147 -0.122,0.202c-0.053,0.042 -0.12,0.058 -0.199,0.048l-2.763,-0.347zm0.617,5.496c-0.54,-0.068 -0.971,-0.3 -1.292,-0.695c-0.303,-0.409 -0.421,-0.883 -0.353,-1.423c0.067,-0.54 0.298,-0.962 0.691,-1.268c0.393,-0.305 0.867,-0.423 1.423,-0.353c0.556,0.07 0.978,0.3 1.268,0.691c0.307,0.377 0.426,0.844 0.356,1.399c-0.068,0.54 -0.299,0.971 -0.694,1.292c-0.393,0.305 -0.86,0.424 -1.399,0.357z"/>
  <path id="svg_33" fill="#D6BCFA" d="m248.397,99.0289c2.033,-0.2975 3.418,-2.3403 3.093,-4.5627c-0.326,-2.2224 -2.238,-3.7828 -4.271,-3.4852c-2.033,0.2975 -3.417,2.3403 -3.092,4.5627c0.325,2.2224 2.237,3.7828 4.27,3.4852z"/>
  <path id="svg_34" fill="#D6BCFA" d="m243.376,107.539c-0.447,-3.057 0.166,-5.91 1.474,-7.7933c1.084,0.7663 2.417,1.1323 3.788,0.9313c1.372,-0.2 2.544,-0.9332 3.363,-1.978c1.793,1.43 3.198,3.988 3.646,7.044c0.716,4.825 -11.609,6.387 -12.271,1.796z"/>
  <path id="svg_35" stroke-linejoin="round" stroke-linecap="round" stroke-width="2" stroke="#D6BCFA" d="m320,44.6406l-41,0m-91,0l44,0"/>
  <path id="svg_36" stroke-linejoin="round" stroke-linecap="round" stroke-width="2" stroke="#D6BCFA" d="m192,50.6406l-6,-6l6,-6"/>
  <path id="svg_37" stroke-width="2" stroke="#D6BCFA" d="m240,22.6406c0,-2.2091 1.791,-4 4,-4l14.343,0c1.061,0 2.078,0.4215 2.829,1.1716l8.656,8.6569c0.751,0.7501 1.172,1.7675 1.172,2.8284l0,26.3431c0,2.2092 -1.791,4 -4,4l-23,0c-2.209,0 -4,-1.7908 -4,-4l0,-35z"/>
  <path id="svg_38" stroke-width="2" stroke="#D6BCFA" d="m260,18.6406l0,7c0,2.2092 1.791,4 4,4l7,0"/>
  <path id="svg_39" fill="#9F7AEA" d="m255.627,40.7743c2.054,0 3.72,-1.8208 3.72,-4.0668c0,-2.2461 -1.666,-4.0669 -3.72,-4.0669c-2.055,0 -3.721,1.8208 -3.721,4.0669c0,2.246 1.666,4.0668 3.721,4.0668z"/>
  <path id="svg_40" fill="#9F7AEA" d="m249.426,48.4672c0,-3.0888 1.02,-5.823 2.586,-7.4974c0.963,0.9151 2.228,1.4706 3.615,1.4706c1.386,0 2.651,-0.5555 3.614,-1.4706c1.566,1.6744 2.586,4.4086 2.586,7.4974c0.01,4.8777 -12.411,4.6386 -12.401,0z"/>
  <path id="svg_41" fill="#B794F4" d="m51.3666,172.801c-1.04,0 -1.9534,-0.2 -2.74,-0.6c-0.7867,-0.414 -1.3934,-0.987 -1.82,-1.72c-0.4267,-0.734 -0.64,-1.58 -0.64,-2.54l0,-4.62c0,-0.96 0.2133,-1.807 0.64,-2.54c0.4266,-0.734 1.0333,-1.3 1.82,-1.7c0.7866,-0.4 1.7,-0.6 2.74,-0.6c1.0266,0 1.9266,0.193 2.7,0.58c0.7866,0.373 1.3933,0.913 1.82,1.62c0.44,0.693 0.66,1.5 0.66,2.42c0,0.12 -0.08,0.193 -0.24,0.22l-2.34,0.14l-0.04,0c-0.1334,0 -0.2,-0.074 -0.2,-0.22c0,-0.707 -0.22,-1.274 -0.66,-1.7c-0.4267,-0.427 -0.9934,-0.64 -1.7,-0.64c-0.72,0 -1.3,0.213 -1.74,0.64c-0.4267,0.426 -0.64,0.993 -0.64,1.7l0,4.82c0,0.693 0.2133,1.253 0.64,1.68c0.44,0.426 1.02,0.64 1.74,0.64c0.7066,0 1.2733,-0.214 1.7,-0.64c0.44,-0.427 0.66,-0.987 0.66,-1.68c0,-0.147 0.08,-0.22 0.24,-0.22l2.34,0.1c0.0666,0 0.12,0.02 0.16,0.06c0.0533,0.04 0.08,0.086 0.08,0.14c0,0.92 -0.22,1.733 -0.66,2.44c-0.4267,0.706 -1.0334,1.253 -1.82,1.64c-0.7734,0.386 -1.6734,0.58 -2.7,0.58zm8.4879,-0.16c-0.0666,0 -0.1266,-0.02 -0.18,-0.06c-0.04,-0.054 -0.06,-0.114 -0.06,-0.18l0,-13.52c0,-0.067 0.02,-0.12 0.06,-0.16c0.0534,-0.054 0.1134,-0.08 0.18,-0.08l2.34,0c0.0667,0 0.12,0.026 0.16,0.08c0.0534,0.04 0.08,0.093 0.08,0.16l0,11.24c0,0.066 0.0334,0.1 0.1,0.1l6.54,0c0.0667,0 0.12,0.026 0.16,0.08c0.0534,0.04 0.08,0.093 0.08,0.16l0,1.94c0,0.066 -0.0266,0.126 -0.08,0.18c-0.04,0.04 -0.0933,0.06 -0.16,0.06l-9.22,0zm12.4453,0c-0.0666,0 -0.1266,-0.02 -0.18,-0.06c-0.04,-0.054 -0.06,-0.114 -0.06,-0.18l0,-13.52c0,-0.067 0.02,-0.12 0.06,-0.16c0.0534,-0.054 0.1134,-0.08 0.18,-0.08l2.34,0c0.0667,0 0.12,0.026 0.16,0.08c0.0534,0.04 0.08,0.093 0.08,0.16l0,13.52c0,0.066 -0.0266,0.126 -0.08,0.18c-0.04,0.04 -0.0933,0.06 -0.16,0.06l-2.34,0zm15.734,-11.82c0,0.066 -0.0267,0.126 -0.08,0.18c-0.04,0.04 -0.0934,0.06 -0.16,0.06l-6.56,0c-0.0667,0 -0.1,0.033 -0.1,0.1l0,3.1c0,0.066 0.0333,0.1 0.1,0.1l4.3,0c0.0666,0 0.12,0.026 0.16,0.08c0.0533,0.04 0.08,0.093 0.08,0.16l0,1.94c0,0.066 -0.0267,0.126 -0.08,0.18c-0.04,0.04 -0.0934,0.06 -0.16,0.06l-4.3,0c-0.0667,0 -0.1,0.033 -0.1,0.1l0,3.24c0,0.066 0.0333,0.1 0.1,0.1l6.56,0c0.0666,0 0.12,0.026 0.16,0.08c0.0533,0.04 0.08,0.093 0.08,0.16l0,1.94c0,0.066 -0.0267,0.126 -0.08,0.18c-0.04,0.04 -0.0934,0.06 -0.16,0.06l-9.24,0c-0.0667,0 -0.1267,-0.02 -0.18,-0.06c-0.04,-0.054 -0.06,-0.114 -0.06,-0.18l0,-13.52c0,-0.067 0.02,-0.12 0.06,-0.16c0.0533,-0.054 0.1133,-0.08 0.18,-0.08l9.24,0c0.0666,0 0.12,0.026 0.16,0.08c0.0533,0.04 0.08,0.093 0.08,0.16l0,1.94zm10.9996,-1.94c0,-0.067 0.02,-0.12 0.06,-0.16c0.0534,-0.054 0.1134,-0.08 0.18,-0.08l2.3396,0c0.067,0 0.12,0.026 0.16,0.08c0.054,0.04 0.08,0.093 0.08,0.16l0,13.52c0,0.066 -0.026,0.126 -0.08,0.18c-0.04,0.04 -0.093,0.06 -0.16,0.06l-2.2596,0c-0.1333,0 -0.2266,-0.054 -0.28,-0.16l-5.18,-8.56c-0.0266,-0.04 -0.0533,-0.054 -0.08,-0.04c-0.0266,0 -0.04,0.026 -0.04,0.08l0.04,8.44c0,0.066 -0.0266,0.126 -0.08,0.18c-0.04,0.04 -0.0933,0.06 -0.16,0.06l-2.34,0c-0.0666,0 -0.1266,-0.02 -0.18,-0.06c-0.04,-0.054 -0.06,-0.114 -0.06,-0.18l0,-13.52c0,-0.067 0.02,-0.12 0.06,-0.16c0.0534,-0.054 0.1134,-0.08 0.18,-0.08l2.26,0c0.1334,0 0.2267,0.053 0.28,0.16l5.16,8.52c0.0267,0.04 0.0534,0.06 0.08,0.06c0.0267,-0.014 0.04,-0.047 0.04,-0.1l-0.02,-8.4zm15.9206,-0.24c0.067,0 0.12,0.026 0.16,0.08c0.054,0.04 0.08,0.093 0.08,0.16l0,1.96c0,0.066 -0.026,0.126 -0.08,0.18c-0.04,0.04 -0.093,0.06 -0.16,0.06l-3.58,0c-0.066,0 -0.1,0.033 -0.1,0.1l0,11.22c0,0.066 -0.026,0.126 -0.08,0.18c-0.04,0.04 -0.093,0.06 -0.16,0.06l-2.34,0c-0.066,0 -0.126,-0.02 -0.18,-0.06c-0.04,-0.054 -0.06,-0.114 -0.06,-0.18l0,-11.22c0,-0.067 -0.033,-0.1 -0.1,-0.1l-3.48,0c-0.066,0 -0.126,-0.02 -0.18,-0.06c-0.04,-0.054 -0.06,-0.114 -0.06,-0.18l0,-1.96c0,-0.067 0.02,-0.12 0.06,-0.16c0.054,-0.054 0.114,-0.08 0.18,-0.08l10.08,0z"/>
  <g id="svg_42" mask="url(#mask0)">
   <path id="svg_43" fill-opacity="0.5" fill="url(#paint2_linear)" d="m47.1581,16.5463c-5.5001,-0.5002 -10.3644,3.5531 -10.8645,9.0532l-5.4339,59.7535c-0.5002,5.5001 3.5531,10.3643 9.0533,10.8645l99.589,9.0565c5.5,0.5 10.364,-3.553 10.865,-9.0533l5.433,-59.7534c0.501,-5.5002 -3.553,-10.3644 -9.053,-10.8646l-99.5889,-9.0564zm27.9299,13.0832c-2.2,-0.2001 -4.1457,1.4212 -4.3458,3.6213c-0.2001,2.2001 1.4212,4.1458 3.6213,4.3458c2.2001,0.2001 4.1458,-1.4212 4.3458,-3.6213c0.2001,-2.2 -1.4212,-4.1457 -3.6213,-4.3458zm-16.2965,2.5345c0.2001,-2.2 2.1458,-3.8213 4.3458,-3.6213c2.2001,0.2001 3.8214,2.1458 3.6213,4.3458c-0.2,2.2001 -2.1457,3.8214 -4.3458,3.6213c-2.2,-0.2 -3.8214,-2.1457 -3.6213,-4.3458zm-7.6049,-4.7081c-2.2,-0.2 -4.1457,1.4213 -4.3458,3.6213c-0.2,2.2001 1.4213,4.1458 3.6213,4.3459c2.2001,0.2 4.1458,-1.4213 4.3459,-3.6213c0.2,-2.2001 -1.4213,-4.1458 -3.6214,-4.3459z" clip-rule="evenodd" fill-rule="evenodd"/>
   <path id="svg_44" fill="#B794F4" d="m36.2936,25.5995l0.9959,0.0906l-0.9959,-0.0906zm-5.4339,59.7535l-0.9959,-0.0906l0.9959,0.0906zm6.4298,-59.6629c0.4501,-4.9501 4.8279,-8.5981 9.7781,-8.1479l0.1811,-1.9918c-6.0502,-0.5502 -11.4008,3.9084 -11.951,9.9586l1.9918,0.1811zm-5.4339,59.7534l5.4339,-59.7534l-1.9918,-0.1811l-5.4339,59.7534l1.9918,0.1811zm8.1479,9.7781c-4.9501,-0.4501 -8.5981,-4.8279 -8.1479,-9.7781l-1.9918,-0.1811c-0.5502,6.0502 3.9084,11.4008 9.9586,11.951l0.1811,-1.9918zm99.5895,9.0564l-99.5895,-9.0564l-0.1811,1.9918l99.5886,9.0566l0.182,-1.992zm9.778,-8.1478c-0.45,4.9498 -4.828,8.5978 -9.778,8.1478l-0.182,1.992c6.051,0.55 11.401,-3.909 11.951,-9.9587l-1.991,-0.1811zm5.434,-59.7535l-5.434,59.7535l1.991,0.1811l5.434,-59.7534l-1.991,-0.1812zm-8.148,-9.7781c4.95,0.4502 8.598,4.828 8.148,9.7781l1.991,0.1812c0.551,-6.0502 -3.908,-11.4009 -9.958,-11.9511l-0.181,1.9918zm-99.5894,-9.0564l99.5894,9.0564l0.181,-1.9918l-99.5893,-9.0564l-0.1811,1.9918zm24.6705,15.7992c0.15,-1.6501 1.6093,-2.8661 3.2594,-2.716l0.1811,-1.9918c-2.7501,-0.2501 -5.1822,1.7766 -5.4323,4.5266l1.9918,0.1812zm2.716,3.2593c-1.6501,-0.15 -2.8661,-1.6093 -2.716,-3.2593l-1.9918,-0.1812c-0.2501,2.7501 1.7766,5.1822 4.5266,5.4323l0.1812,-1.9918zm3.2593,-2.7159c-0.15,1.65 -1.6093,2.866 -3.2593,2.7159l-0.1812,1.9918c2.7501,0.2501 5.1822,-1.7765 5.4323,-4.5266l-1.9918,-0.1811zm-2.7159,-3.2594c1.65,0.15 2.866,1.6093 2.7159,3.2594l1.9918,0.1811c0.2501,-2.7501 -1.7765,-5.1822 -4.5266,-5.4323l-0.1811,1.9918zm-11.7696,-3.0786c-2.7501,-0.2501 -5.1822,1.7766 -5.4323,4.5267l1.9918,0.1811c0.1501,-1.6501 1.6093,-2.866 3.2594,-2.716l0.1811,-1.9918zm4.5266,5.4323c0.2501,-2.7501 -1.7765,-5.1822 -4.5266,-5.4323l-0.1811,1.9918c1.65,0.1501 2.866,1.6093 2.7159,3.2594l1.9918,0.1811zm-5.4322,4.5266c2.75,0.2501 5.1821,-1.7765 5.4322,-4.5266l-1.9918,-0.1811c-0.15,1.65 -1.6093,2.866 -3.2593,2.716l-0.1811,1.9917zm-4.5267,-5.4322c-0.2501,2.75 1.7766,5.1821 4.5267,5.4322l0.1811,-1.9917c-1.6501,-0.1501 -2.866,-1.6094 -2.716,-3.2594l-1.9918,-0.1811zm-9.9589,-0.9057c0.1501,-1.65 1.6093,-2.866 3.2594,-2.716l0.1811,-1.9917c-2.7501,-0.2501 -5.1822,1.7765 -5.4323,4.5266l1.9918,0.1811zm2.716,3.2594c-1.65,-0.1501 -2.866,-1.6093 -2.716,-3.2594l-1.9918,-0.1811c-0.25,2.7501 1.7766,5.1822 4.5267,5.4323l0.1811,-1.9918zm3.2594,-2.716c-0.1501,1.65 -1.6094,2.866 -3.2594,2.716l-0.1811,1.9918c2.75,0.25 5.1822,-1.7766 5.4322,-4.5267l-1.9917,-0.1811zm-2.716,-3.2594c1.65,0.1501 2.866,1.6094 2.716,3.2594l1.9917,0.1811c0.2501,-2.75 -1.7765,-5.1822 -4.5266,-5.4322l-0.1811,1.9917z"/>
   <path id="svg_45" stroke-dasharray="4 4" stroke-width="4" stroke="#FCF8FF" fill="#FCF8FF" d="m106.803,103.545c0.065,-0.699 0.111,-1.394 0.141,-2.083l-1.998,-0.086c0.058,-1.35 0.046,-2.6791 -0.032,-3.9794l1.997,-0.1186c-0.085,-1.423 -0.244,-2.8159 -0.473,-4.1696l-1.972,0.334c-0.227,-1.3392 -0.526,-2.6353 -0.891,-3.8782l1.918,-0.5644c-0.408,-1.3891 -0.897,-2.7217 -1.46,-3.9852l-1.827,0.8146c-0.555,-1.2458 -1.186,-2.4134 -1.885,-3.4892c0.021,-0.0161 0.042,-0.0322 0.062,-0.0483l-0.003,-0.0041l1.611,-1.0475c-0.399,-0.6143 -0.82,-1.2038 -1.263,-1.7659l-1.2295,-1.5599l-1.5686,1.2182c-0.6914,0.537 -1.4262,1.0088 -2.1957,1.4087l0.9222,1.7746c-1.7483,0.9086 -3.6617,1.4962 -5.6646,1.6963l-0.1988,-1.9901c-0.8453,0.0844 -1.7099,0.0896 -2.5869,0.0085c-0.877,-0.0812 -1.726,-0.2449 -2.5414,-0.483l-0.5606,1.9198c-1.9322,-0.5642 -3.7053,-1.4929 -5.2572,-2.7068l1.2322,-1.5753c-0.6831,-0.5343 -1.3189,-1.1329 -1.9,-1.7876l-1.3184,-1.4853l-1.4945,1.3079c-0.5385,0.4712 -1.061,0.9733 -1.5664,1.5039l1.3916,1.3254l-0.0038,0.0034c0.0174,0.0197 0.0349,0.0393 0.0525,0.0589c-0.8843,0.9294 -1.7187,1.9614 -2.4934,3.0841l-1.6461,-1.1359c-0.7858,1.1386 -1.5106,2.359 -2.1671,3.6496l1.7827,0.9068c-0.5875,1.1548 -1.1191,2.374 -1.5879,3.6489l-1.8771,-0.6902c-0.4738,1.2887 -0.8858,2.6287 -1.23,4.012l1.9408,0.483c-0.3146,1.264 -0.5701,2.5683 -0.761,3.906l-1.9799,-0.2825c-0.0976,0.6835 -0.179,1.375 -0.2437,2.0738m40.8256,3.7776c-0.076,0.84 -0.253,1.641 -0.524,2.399l-1.883,-0.674c-0.441,1.231 -1.19,2.289 -2.178,3.183l1.342,1.483c-1.102,0.997 -2.412,1.791 -3.8322,2.411l-0.8,-1.833c-1.1337,0.495 -2.3871,0.882 -3.7208,1.167l0.4179,1.956c-1.3309,0.285 -2.7225,0.472 -4.1411,0.57l-0.1378,-1.995c-1.2756,0.088 -2.5853,0.1 -3.9021,0.039l-0.0924,1.998c-1.3669,-0.063 -2.7402,-0.201 -4.0938,-0.41l0.3046,-1.976c-1.3009,-0.201 -2.5826,-0.47 -3.8184,-0.806l-0.5243,1.93c-1.3681,-0.372 -2.6939,-0.822 -3.9441,-1.351l0.7792,-1.842c-1.2547,-0.531 -2.4153,-1.142 -3.4434,-1.828l-1.1099,1.664c-1.2843,-0.857 -2.4329,-1.851 -3.3509,-2.992l1.5582,-1.254c-0.8495,-1.055 -1.4271,-2.219 -1.6589,-3.483l-1.9672,0.361c-0.1482,-0.807 -0.1858,-1.641 -0.1052,-2.4946m40.8256,3.7776c0,-0.001 0,-0.001 0,-0.002l-1.992,-0.18l1.992,0.184c0,-0.001 0,-0.001 0,-0.002zm-40.8256,-3.7776c0,0.0007 -0.0001,0.0014 -0.0002,0.0021l1.9915,0.1843l-1.9911,-0.1885c0,0.0007 -0.0001,0.0014 -0.0002,0.0021zm16.3924,-23.3245c1.1189,1.0106 2.4347,1.7869 3.8888,2.2528l-0.6102,1.9046c0.8448,0.2707 1.7279,0.4533 2.6403,0.5377c0.9124,0.0844 1.814,0.067 2.6941,-0.0441l-0.2504,-1.9843c1.5149,-0.1911 2.9508,-0.7128 4.2362,-1.501l1.0454,1.705c1.4983,-0.9187 2.813,-2.138 3.8696,-3.58l-1.6133,-1.1821c0.8706,-1.188 1.5419,-2.5588 1.9527,-4.0576l1.929,0.5289c0.227,-0.8272 0.385,-1.6863 0.466,-2.5701c0.082,-0.8837 0.085,-1.7572 0.013,-2.612l-1.993,0.166c-0.129,-1.5487 -0.537,-3.0194 -1.1748,-4.347l1.8028,-0.866c-0.774,-1.6113 -1.8428,-3.0512 -3.1471,-4.2292l-1.3405,1.4842c-1.1189,-1.0106 -2.4348,-1.7869 -3.8888,-2.2528l0.6102,-1.9046c-0.8448,-0.2707 -1.7279,-0.4533 -2.6403,-0.5377c-0.9124,-0.0844 -1.814,-0.067 -2.6941,0.0441l0.2504,1.9843c-1.5149,0.1911 -2.9509,0.7128 -4.2362,1.501l-1.0455,-1.705c-1.4982,0.9187 -2.813,2.138 -3.8695,3.58l1.6132,1.1821c-0.8705,1.188 -1.5418,2.5588 -1.9528,4.0576l-1.9288,-0.5289c-0.2268,0.8272 -0.3846,1.6863 -0.4664,2.5701c-0.0818,0.8837 -0.0843,1.7572 -0.0131,2.612l1.9931,-0.166c0.129,1.5488 0.5374,3.0194 1.1752,4.347l-1.8028,0.866c0.7741,1.6113 1.8427,3.0512 3.147,4.2292l1.3406,-1.4842z"/>
   <path id="svg_46" stroke-dasharray="4 4" stroke-width="2" stroke="#B794F4" d="m79.8469,80.7605c1.5519,1.2139 3.325,2.1426 5.2572,2.7068l-0.2803,0.9599c0.9985,0.2916 2.0365,0.4916 3.1059,0.5905c1.0694,0.099 2.1265,0.0928 3.1615,-0.0106l-0.0994,-0.995c2.0029,-0.2001 3.9163,-0.7877 5.6646,-1.6963l0.4612,0.8874c0.6324,-0.3287 1.2441,-0.6967 1.8319,-1.1011c0.1796,0.2515 0.3552,0.5093 0.5268,0.7732l0.8387,-0.5451c0.701,1.0786 1.334,2.2494 1.891,3.499l-0.913,0.4073c0.507,1.1363 0.95,2.3432 1.322,3.6098l0.96,-0.2821c0.365,1.2429 0.664,2.539 0.891,3.8782l-0.986,0.167c0.211,1.2452 0.358,2.5302 0.436,3.8466l0.998,-0.0594c0.078,1.3003 0.09,2.6294 0.032,3.9794l-0.999,-0.043c-0.028,0.641 -0.071,1.287 -0.131,1.938l-0.001,0.002c-0.053,0.594 -0.177,1.146 -0.361,1.66l0.942,0.337c-0.441,1.231 -1.19,2.289 -2.178,3.183l-0.671,-0.742c-0.816,0.739 -1.8337,1.369 -3.0192,1.887l0.4,0.916c-1.1337,0.495 -2.3871,0.882 -3.7208,1.167l-0.209,-0.977c-1.1781,0.251 -2.4283,0.421 -3.7209,0.51l0.0689,0.998c-1.2756,0.088 -2.5853,0.1 -3.9021,0.039l0.0462,-0.999c-1.2598,-0.058 -2.5267,-0.185 -3.7755,-0.378l-0.1523,0.989c-1.3009,-0.201 -2.5826,-0.47 -3.8184,-0.806l0.2622,-0.965c-1.2507,-0.34 -2.4476,-0.748 -3.5618,-1.219l-0.3896,0.921c-1.2547,-0.531 -2.4153,-1.142 -3.4434,-1.828l0.555,-0.831c-1.0858,-0.725 -1.9899,-1.522 -2.6785,-2.378l-0.7791,0.627c-0.8495,-1.055 -1.4271,-2.219 -1.6589,-3.483l0.9836,-0.18c-0.098,-0.534 -0.1242,-1.091 -0.0691,-1.673l0.0002,-0.002c0.0601,-0.6503 0.1359,-1.2934 0.2265,-1.9286l-0.99,-0.1413c0.1909,-1.3377 0.4464,-2.642 0.761,-3.906l0.9704,0.2414c0.3184,-1.2797 0.6987,-2.5158 1.1345,-3.7012l-0.9386,-0.345c0.4688,-1.2749 1.0004,-2.4941 1.5878,-3.6489l0.8914,0.4534c0.5986,-1.1768 1.2556,-2.2819 1.9623,-3.3059l-0.8231,-0.568c0.7771,-1.1261 1.6141,-2.1609 2.5014,-3.0925l0.7241,0.6897c0.2171,-0.2279 0.4371,-0.4491 0.6597,-0.6634c0.5037,0.5053 1.0374,0.9793 1.5989,1.4185l0.6161,-0.7877zm20.7911,-14.7538c-0.129,-1.5487 -0.537,-3.0194 -1.1748,-4.347l-0.9014,0.433c-0.61,-1.2698 -1.4464,-2.3921 -2.4537,-3.3019l0.6703,-0.7421c-1.1189,-1.0106 -2.4348,-1.7869 -3.8888,-2.2528l-0.3052,0.9523c-0.639,-0.2047 -1.308,-0.3432 -2.0013,-0.4074c-0.6934,-0.0641 -1.3764,-0.0507 -2.0421,0.0333l-0.1252,-0.9921c-1.5149,0.1911 -2.9509,0.7128 -4.2362,1.501l0.5227,0.8525c-1.1571,0.7095 -2.1852,1.6593 -3.0178,2.7956l-0.8067,-0.591c-0.8705,1.188 -1.5418,2.5588 -1.9528,4.0576l0.9644,0.2644c-0.1805,0.6584 -0.3068,1.3446 -0.3724,2.0532c-0.0655,0.7085 -0.0673,1.4062 -0.0106,2.0866l-0.9966,0.083c0.129,1.5488 0.5374,3.0194 1.1752,4.347l0.9014,-0.433c0.61,1.2698 1.4463,2.3921 2.4536,3.3019l-0.6702,0.7421c1.1189,1.0106 2.4347,1.7869 3.8888,2.2528l0.3051,-0.9523c0.6391,0.2047 1.308,0.3432 2.0014,0.4074c0.6933,0.0641 1.3764,0.0507 2.0421,-0.0333l0.1252,0.9921c1.5149,-0.1911 2.9508,-0.7128 4.2362,-1.501l-0.5227,-0.8525c1.1571,-0.7095 2.1852,-1.6593 3.0178,-2.7956l0.8066,0.591c0.8706,-1.188 1.5419,-2.5587 1.9527,-4.0576l-0.9642,-0.2644c0.1805,-0.6584 0.3068,-1.3446 0.3723,-2.0532c0.0656,-0.7085 0.0674,-1.4062 0.0107,-2.0866l0.9962,-0.083z"/>
  </g>
  <rect id="svg_47" stroke-width="2" stroke="#B794F4" transform="rotate(-8.90732 1.14278 46.0528)" rx="7" height="78" width="38" y="46.0528" x="1.14278"/>
  <path id="svg_48" stroke-linejoin="round" stroke-linecap="round" stroke-width="2" stroke="#B794F4" d="m15.9023,49.8125l9.8794,-1.5484"/>
 </g>
</svg>